<svg width="300" height="267" viewBox="0 0 300 267" fill="none" xmlns="http://www.w3.org/2000/svg">
<path d="M85.4496 0H95.2334C104.043 1.25193 112.332 4.77238 119.958 9.26787C130.862 15.6917 140.875 23.8856 149.865 32.7342C149.903 32.7714 149.954 32.7922 150.007 32.7922C150.06 32.7922 150.111 32.7714 150.149 32.7342C154.874 28.1233 159.838 23.7551 165.038 19.6294C176.603 10.4545 189.986 2.23884 204.83 0H214.705C235.763 3.17829 242.24 24.3781 242.528 42.4748C242.748 56.1036 240.558 69.8512 237.184 83.0291C237.173 83.0729 237.179 83.1193 237.202 83.1581C237.224 83.197 237.261 83.2252 237.304 83.2368C250.438 86.8759 263.582 91.9053 275.267 99.0036C284.255 104.462 293.653 112.308 297.717 122.316C304.929 140.068 293.971 155.19 279.979 164.897C267.156 173.795 252.207 179.56 237.273 183.785C237.239 183.794 237.211 183.816 237.194 183.846C237.176 183.876 237.171 183.912 237.18 183.945C240.589 197.495 242.805 211.316 242.475 225.328C242.048 243.502 235.413 263.786 214.637 267H204.806C193.485 265.4 182.851 259.967 173.474 253.569C165.131 247.877 157.364 241.301 150.147 234.256C150.113 234.223 150.068 234.205 150.021 234.205C149.974 234.205 149.928 234.223 149.894 234.256C142.621 241.344 134.968 247.8 126.437 253.636C117.007 260.086 106.573 265.325 95.2571 267H85.3804C65.8583 264.053 58.6617 245.547 57.6873 228.236C56.8492 213.365 59.1796 198.306 62.8638 183.925C62.8712 183.897 62.8673 183.866 62.8529 183.841C62.8385 183.815 62.8147 183.797 62.7867 183.789C50.1251 180.223 37.6394 175.508 26.2526 168.888C21.7053 166.245 17.6692 163.378 14.1444 160.289C4.11546 151.494 -2.96051 139.17 1.22776 125.338C5.24999 112.049 17.9551 102.411 29.836 96.1081C40.4539 90.4734 51.3308 86.6247 62.7689 83.1932C62.8388 83.1721 62.8651 83.1267 62.848 83.0568C59.2053 68.3105 56.7168 53.131 57.7545 37.8903C58.9206 20.7449 66.2456 2.8124 85.4496 0ZM119.171 24.1922C105.377 14.7799 79.8896 2.39509 72.6358 27.8372C70.6513 34.797 70.2699 42.3205 70.6513 49.5552C71.1909 59.7981 72.9915 69.8986 75.4879 79.837C75.4963 79.8702 75.5173 79.8988 75.5464 79.9169C75.5756 79.935 75.6105 79.9411 75.644 79.9339C88.7761 77.0292 102.041 74.9743 115.437 73.7691C115.503 73.7625 115.555 73.7322 115.594 73.6782C123.351 62.658 131.776 52.1771 140.869 42.2354C140.896 42.2078 140.895 42.1801 140.867 42.1524C134.143 35.596 126.935 29.4887 119.171 24.1922ZM184.505 73.7335C197.926 75.0408 211.22 76.9929 224.36 79.9279C224.461 79.9503 224.525 79.9114 224.55 79.8112C227.647 67.4145 229.799 54.642 229.446 41.8181C229.165 31.7137 226.631 16.645 214.9 13.3718C208.036 11.4573 199.693 14.0323 193.453 16.9614C180.643 22.9778 169.302 32.3485 159.184 42.1306C159.168 42.146 159.159 42.167 159.158 42.1891C159.157 42.2113 159.165 42.2329 159.18 42.2493C168.276 52.1988 176.704 62.6857 184.464 73.7098C184.469 73.7166 184.475 73.7223 184.482 73.7264C184.489 73.7305 184.497 73.7329 184.505 73.7335ZM132.671 72.5666C144.232 72.0603 155.786 72.088 167.357 72.5568C167.368 72.5571 167.378 72.5545 167.387 72.549C167.396 72.5436 167.404 72.5356 167.409 72.5259C167.414 72.5163 167.416 72.5053 167.415 72.4944C167.414 72.4834 167.411 72.4728 167.404 72.4638C161.973 65.3029 156.234 58.3978 150.187 51.7486C150.165 51.7251 150.139 51.7064 150.11 51.6936C150.081 51.6808 150.05 51.6742 150.018 51.6742C149.986 51.6742 149.955 51.6808 149.926 51.6936C149.896 51.7064 149.87 51.7251 149.849 51.7486C143.801 58.4031 138.059 65.3122 132.623 72.4757C132.617 72.4843 132.613 72.4945 132.613 72.5051C132.612 72.5157 132.614 72.5264 132.619 72.5358C132.624 72.5453 132.631 72.5532 132.641 72.5586C132.65 72.564 132.66 72.5668 132.671 72.5666ZM123.126 180.775C141.102 182.095 159.115 182.095 177.164 180.777C177.206 180.774 177.247 180.761 177.284 180.74C177.32 180.719 177.352 180.689 177.376 180.654C187.537 165.686 196.562 150.047 204.452 133.737C204.537 133.565 204.558 133.436 204.518 133.352C196.609 117.028 187.564 101.362 177.382 86.3518C177.344 86.2937 177.29 86.2601 177.222 86.2509C176.077 86.0788 174.891 86.0709 173.737 85.9977C156.869 84.9165 140.007 84.9812 123.15 86.1916C123.038 86.1995 122.928 86.2153 122.82 86.239C122.754 86.2548 122.701 86.2911 122.662 86.3478C112.465 101.367 103.413 117.049 95.5042 133.393C95.4699 133.463 95.4699 133.533 95.5042 133.603C103.425 149.958 112.485 165.653 122.683 180.688C122.723 180.746 122.777 180.773 122.846 180.769C122.94 180.765 123.034 180.767 123.126 180.775ZM88.5686 118.089C93.9342 107.813 99.7267 97.7767 105.946 87.9814C105.95 87.9752 105.953 87.968 105.953 87.9605C105.953 87.9531 105.95 87.9457 105.946 87.9393C105.942 87.9329 105.936 87.9277 105.929 87.9243C105.922 87.9209 105.914 87.9195 105.907 87.9201C96.9293 89.0422 88.0224 90.5723 79.186 92.5106C79.1728 92.5135 79.1604 92.5191 79.1495 92.5271C79.1386 92.5352 79.1295 92.5454 79.1228 92.5571C79.1161 92.5688 79.112 92.5818 79.1106 92.5953C79.1092 92.6087 79.1106 92.6223 79.1148 92.6352C81.8688 101.277 85.0042 109.777 88.5211 118.137C88.5217 118.139 88.5231 118.141 88.5249 118.142C88.5268 118.144 88.5292 118.145 88.5318 118.145C88.5343 118.145 88.5369 118.144 88.5392 118.142C88.5416 118.141 88.5435 118.139 88.5448 118.137C88.5528 118.119 88.5607 118.104 88.5686 118.089ZM220.828 92.4947C212.001 90.5671 203.104 89.0415 194.139 87.9182C194.129 87.9168 194.119 87.9183 194.11 87.9225C194.102 87.9267 194.094 87.9335 194.089 87.942C194.084 87.9505 194.081 87.9604 194.081 87.9705C194.081 87.9807 194.084 87.9906 194.089 87.9992C200.317 97.7695 206.103 107.795 211.447 118.075C211.482 118.143 211.513 118.141 211.542 118.071C215.054 109.738 218.177 101.262 220.913 92.6431C220.918 92.6277 220.919 92.6116 220.917 92.5957C220.916 92.5797 220.911 92.5643 220.903 92.5504C220.895 92.5364 220.884 92.5243 220.871 92.5147C220.858 92.5052 220.844 92.4984 220.828 92.4947ZM37.0425 159.988C46.3104 164.769 56.2741 168.422 66.3129 171.212C66.3827 171.232 66.4281 171.207 66.4492 171.137C70.5064 158.317 75.3581 145.806 81.0044 133.605C81.0373 133.535 81.0373 133.464 81.0044 133.393C75.3621 121.192 70.5117 108.682 66.4532 95.8629C66.4308 95.7904 66.3827 95.7647 66.3089 95.7857C55.2166 98.8572 44.4011 102.935 34.2378 108.578C26.3554 112.957 16.0003 120.377 13.583 129.542C9.90867 143.486 26.9543 154.783 37.0425 159.988ZM286.346 137.837C289.805 125.866 277.784 115.809 268.974 110.433C258.127 103.814 246.001 99.2053 233.758 95.7818C233.664 95.7554 233.601 95.7897 233.571 95.8846C229.524 108.709 224.673 121.219 219.017 133.417C219.005 133.443 218.999 133.472 218.999 133.501C218.999 133.53 219.005 133.558 219.017 133.585C224.668 145.797 229.523 158.318 233.582 171.149C233.605 171.223 233.654 171.249 233.729 171.228C244.819 168.131 256.058 163.902 266.15 158.232C273.84 153.911 283.786 146.692 286.346 137.837ZM211.426 148.952C206.093 159.226 200.313 169.242 194.086 178.999C194.08 179.007 194.078 179.017 194.078 179.027C194.078 179.037 194.081 179.047 194.086 179.055C194.091 179.064 194.099 179.071 194.108 179.075C194.117 179.079 194.127 179.081 194.137 179.08C203.096 177.956 211.986 176.432 220.806 174.505C220.824 174.501 220.842 174.493 220.857 174.482C220.872 174.471 220.884 174.457 220.894 174.441C220.903 174.425 220.909 174.407 220.911 174.388C220.913 174.37 220.911 174.351 220.905 174.333C218.171 165.734 215.053 157.276 211.552 148.958C211.514 148.866 211.472 148.864 211.426 148.952ZM79.2275 174.495C88.0454 176.424 96.9332 177.951 105.891 179.076C105.901 179.077 105.911 179.075 105.92 179.071C105.93 179.066 105.937 179.059 105.943 179.051C105.949 179.042 105.952 179.032 105.952 179.022C105.952 179.012 105.949 179.002 105.944 178.993C99.7261 169.233 93.9467 159.221 88.6061 148.956C88.6001 148.945 88.5909 148.935 88.5797 148.929C88.5685 148.922 88.5556 148.919 88.5426 148.919C88.5296 148.92 88.517 148.924 88.5062 148.931C88.4954 148.938 88.4869 148.948 88.4816 148.96C84.9831 157.275 81.8655 165.729 79.1287 174.323C79.123 174.341 79.1211 174.36 79.1231 174.378C79.1251 174.397 79.1309 174.415 79.1402 174.431C79.1495 174.447 79.1621 174.461 79.1771 174.472C79.1921 174.484 79.2093 174.491 79.2275 174.495ZM70.5624 222.846C70.5051 230.824 71.6791 240.201 76.1975 247.017C85.8568 261.577 106.851 250.887 117.274 244.074C125.717 238.552 133.564 231.934 140.85 224.869C140.866 224.853 140.876 224.831 140.876 224.807C140.876 224.784 140.868 224.762 140.852 224.745C131.765 214.804 123.344 204.328 115.59 193.316C115.55 193.261 115.496 193.23 115.428 193.223C102.024 192.02 88.753 189.966 75.6144 187.06C75.589 187.054 75.5622 187.059 75.54 187.072C75.5178 187.086 75.5019 187.108 75.4958 187.133C72.5824 198.8 70.5703 210.693 70.5169 222.751C70.5169 222.76 70.5189 222.769 70.5227 222.778C70.5264 222.786 70.5319 222.793 70.5387 222.799C70.5558 222.812 70.5637 222.828 70.5624 222.846ZM159.18 224.867C164.463 229.988 170.025 234.843 175.903 239.272C182.052 243.902 188.784 248.104 195.914 251.103C199.664 252.681 203.307 253.68 206.842 254.101C230.906 256.967 230.515 225.269 228.841 210.485C227.949 202.604 226.509 194.824 224.52 187.143C224.503 187.077 224.461 187.052 224.394 187.066C211.298 189.964 198.072 192.015 184.713 193.219C184.65 193.224 184.589 193.247 184.537 193.286C184.428 193.371 184.356 193.437 184.321 193.486C176.651 204.373 168.269 214.799 159.176 224.763C159.163 224.777 159.156 224.796 159.157 224.816C159.157 224.835 159.166 224.854 159.18 224.867ZM149.513 214.848C149.701 215.055 149.838 215.213 149.924 215.323C149.983 215.398 150.045 215.4 150.11 215.329C156.199 208.653 161.969 201.712 167.42 194.507C167.426 194.499 167.429 194.489 167.43 194.48C167.431 194.47 167.429 194.46 167.425 194.452C167.42 194.443 167.414 194.436 167.405 194.432C167.397 194.427 167.388 194.425 167.379 194.425C155.82 194.945 144.261 194.946 132.702 194.427C132.69 194.427 132.677 194.43 132.666 194.436C132.655 194.442 132.646 194.452 132.64 194.463C132.634 194.474 132.632 194.487 132.632 194.499C132.633 194.512 132.638 194.524 132.645 194.534C137.946 201.557 143.569 208.328 149.513 214.848Z" fill="url(#paint0_linear_13_3173)"/>
<path d="M179.915 133.011V134.152C179.433 150.085 166.922 162.833 150.925 163.46H148.85C143.959 163.248 138.817 161.833 134.546 159.276C133.056 158.383 131.37 157.067 130.128 155.963C123.703 150.254 120.011 142.218 119.986 133.618L119.983 132.971C120.462 109.758 146.029 95.8011 165.831 108.136C174.393 113.469 179.662 122.828 179.915 133.011ZM142.749 106.416C142.641 106.296 142.571 106.318 142.539 106.48C140.767 107.046 139.089 107.81 137.504 108.773C137.482 108.694 137.424 108.698 137.329 108.784C137.303 108.809 137.272 108.825 137.237 108.831C137.094 108.858 137.021 108.937 137.018 109.069L136.251 109.537L135.642 109.876C135.627 109.885 135.615 109.897 135.608 109.913C135.6 109.928 135.598 109.946 135.602 109.963C135.605 109.979 135.614 109.993 135.628 110.003C135.59 110.068 135.534 110.11 135.459 110.129C135.37 110.002 135.148 110.267 135.082 110.332C134.857 110.553 134.596 110.563 134.493 110.913C134.374 111.083 134.22 111.198 134.032 111.258C133.648 111.558 133.112 112.055 132.426 112.749C132.117 113.062 131.915 113.311 131.82 113.495C131.619 113.795 131.384 114.066 131.115 114.308C130.789 114.593 130.509 114.925 130.274 115.305C130.259 115.328 130.264 115.346 130.288 115.359C130.298 115.365 130.31 115.366 130.323 115.364C130.29 115.448 130.241 115.515 130.177 115.565C130.169 115.511 130.113 115.531 130.088 115.566C129.283 116.694 128.612 117.892 128.075 119.16L127.839 119.735C127.652 119.875 127.586 120.031 127.642 120.204L127.507 120.568C127.36 120.533 127.322 120.786 127.426 120.773L127.373 120.922L127.344 120.906C127.316 120.888 127.296 120.895 127.286 120.927C127.261 121.008 126.826 122.102 126.977 122.059L126.912 122.269C126.91 122.251 126.905 122.237 126.898 122.227C126.879 122.195 126.863 122.196 126.851 122.232C126.834 122.289 126.58 122.938 126.718 122.908L126.643 123.11C126.548 123.022 126.522 123.331 126.579 123.354L126.405 124.092C126.299 124.123 126.274 124.243 126.329 124.45C126.344 124.505 126.33 124.562 126.288 124.62C126.177 124.657 126.162 124.745 126.243 124.883L126.161 125.294C126.055 125.398 126.035 125.543 126.1 125.73L126.045 126.121C125.936 126.128 125.923 126.223 126.006 126.406L125.903 127.138C125.82 127.446 125.813 127.745 125.881 128.036C125.78 129.095 125.789 130.149 125.909 131.196C125.819 131.37 125.819 131.546 125.909 131.722C125.926 131.756 125.946 131.758 125.97 131.729C126.009 131.679 126.001 131.638 125.946 131.604C126.006 131.606 126.049 131.553 126.074 131.445C126.11 131.45 126.146 131.442 126.183 131.419C126.189 131.415 126.192 131.41 126.192 131.403C126.193 131.39 126.191 131.377 126.188 131.367C126.18 131.342 126.182 131.319 126.196 131.297C126.282 131.155 126.414 130.898 126.592 130.526C126.876 129.93 127.411 129.079 128.195 127.973C128.31 127.809 128.403 127.693 128.472 127.624C128.496 127.601 128.513 127.573 128.524 127.542C128.556 127.447 128.616 127.371 128.704 127.314C128.738 127.292 128.767 127.264 128.791 127.23C129.115 126.761 129.49 126.336 129.918 125.956C130.01 125.875 130.102 125.734 130.195 125.534L130.47 125.281C130.912 125.059 131.322 124.536 131.714 124.211C131.738 124.193 131.741 124.171 131.723 124.147C131.716 124.138 131.707 124.131 131.694 124.125L131.754 124.077C131.825 124.228 132.189 123.825 132.293 123.762C132.323 123.743 132.33 123.718 132.312 123.686C132.305 123.675 132.295 123.665 132.28 123.657L132.34 123.612C132.371 123.678 132.821 123.452 132.741 123.308C132.743 123.324 132.755 123.314 132.779 123.28L132.822 123.287C132.862 123.293 132.903 123.284 132.937 123.261L133.61 122.81C133.649 122.784 133.648 122.758 133.608 122.733C133.596 122.726 133.582 122.722 133.567 122.72C133.616 122.675 133.644 122.663 133.65 122.685C133.771 122.711 134.086 122.546 133.925 122.492C133.934 122.478 133.951 122.466 133.978 122.457L134.016 122.489C134.025 122.495 134.035 122.499 134.046 122.5C134.056 122.501 134.067 122.498 134.076 122.492L134.527 122.215C134.532 122.212 134.536 122.208 134.539 122.203C134.542 122.198 134.544 122.193 134.544 122.187C134.545 122.181 134.544 122.176 134.542 122.17C134.54 122.165 134.537 122.16 134.533 122.156C134.523 122.148 134.507 122.143 134.482 122.142C134.501 122.119 134.53 122.104 134.569 122.097C134.565 122.117 134.574 122.134 134.595 122.148C134.628 122.17 134.659 122.169 134.69 122.145L135.122 121.801L135.858 121.394C135.953 121.535 136.107 121.371 136.004 121.323C136.024 121.3 136.054 121.284 136.092 121.276C136.148 121.376 136.306 121.336 136.262 121.211C136.268 121.191 136.289 121.179 136.325 121.177C136.408 121.243 136.536 121.219 136.497 121.094C136.519 121.067 136.549 121.05 136.588 121.042C136.688 121.185 136.836 121.019 136.735 120.972C136.757 120.946 136.787 120.931 136.827 120.929C136.833 120.95 136.849 120.965 136.872 120.974C136.917 120.991 136.955 120.982 136.986 120.946C137.029 120.898 137.084 120.877 137.15 120.883C137.201 120.887 137.236 120.865 137.256 120.819C137.268 120.794 137.267 120.765 137.254 120.733L137.378 120.69C137.373 120.706 137.382 120.724 137.4 120.745C137.414 120.76 137.43 120.763 137.448 120.755L137.817 120.593C137.845 120.58 137.85 120.562 137.834 120.537L137.813 120.504L137.956 120.45C138.015 120.523 138.081 120.535 138.151 120.484C138.181 120.463 138.213 120.446 138.248 120.435L139.541 120.002C139.56 119.996 139.572 119.983 139.575 119.963C139.577 119.949 139.575 119.933 139.568 119.915L139.748 119.872C139.768 119.982 140.039 119.926 139.926 119.815L140.219 119.75C140.201 119.873 140.496 119.799 140.397 119.7L141.13 119.535C141.493 119.6 141.604 119.574 141.462 119.459L142.421 119.294C142.722 119.389 142.877 119.369 142.885 119.234L143.364 119.179C143.621 119.27 143.835 119.246 144.006 119.108C145.532 118.986 147.059 119.026 148.588 119.228C148.638 119.366 148.77 119.387 148.985 119.291L149.342 119.342C149.423 119.48 149.588 119.505 149.837 119.418C149.888 119.414 149.934 119.426 149.974 119.454C149.929 119.598 150.204 119.602 150.264 119.517L151.003 119.679C151.015 119.787 151.115 119.829 151.304 119.804C151.342 119.799 151.374 119.811 151.398 119.843C151.481 119.955 151.584 119.965 151.705 119.872C151.77 119.877 151.826 119.895 151.873 119.923C151.882 120.021 151.956 120.063 152.096 120.051C152.115 120.049 152.127 120.04 152.132 120.022C152.136 120.012 152.137 120.001 152.134 119.988C152.198 120.002 152.238 120.02 152.254 120.041C152.23 120.197 152.504 120.193 152.485 120.105C152.539 120.107 152.589 120.123 152.633 120.152C152.463 120.258 152.801 120.307 152.898 120.256C152.926 120.238 152.947 120.244 152.959 120.273C152.902 120.442 153.153 120.4 153.228 120.367C153.256 120.357 153.273 120.366 153.28 120.393C153.264 120.45 153.287 120.493 153.348 120.521C153.385 120.539 153.42 120.536 153.454 120.512C153.474 120.497 153.483 120.479 153.482 120.458L153.598 120.501C153.448 120.599 153.728 120.669 153.835 120.606C153.865 120.59 153.883 120.596 153.89 120.622C153.857 120.637 153.846 120.659 153.858 120.685C153.867 120.704 153.881 120.719 153.898 120.73C153.915 120.74 153.935 120.746 153.955 120.745C154.017 120.743 154.043 120.725 154.035 120.691L154.153 120.735C154.132 120.747 154.126 120.767 154.133 120.794C154.137 120.812 154.147 120.828 154.16 120.84C154.174 120.852 154.191 120.86 154.209 120.862C154.273 120.869 154.333 120.862 154.391 120.842C154.419 120.823 154.439 120.828 154.452 120.859C154.344 120.972 154.551 121.034 154.63 120.95C154.677 120.942 154.704 120.949 154.711 120.972C154.684 120.982 154.673 120.998 154.677 121.021C154.679 121.036 154.685 121.051 154.694 121.064C154.702 121.076 154.714 121.087 154.727 121.095C154.74 121.103 154.755 121.108 154.771 121.11C154.786 121.112 154.802 121.11 154.817 121.105C154.851 121.094 154.865 121.073 154.857 121.042C154.897 121.051 154.928 121.067 154.949 121.092C154.929 121.15 154.94 121.193 154.98 121.219C155.015 121.242 155.049 121.242 155.083 121.217L155.127 121.183C155.157 121.178 155.174 121.186 155.178 121.206C155.145 121.224 155.136 121.249 155.151 121.28C155.16 121.299 155.176 121.315 155.196 121.324C155.215 121.333 155.237 121.335 155.257 121.33C155.292 121.322 155.314 121.304 155.325 121.275C155.366 121.285 155.397 121.302 155.418 121.326C155.383 121.44 155.504 121.521 155.595 121.418C155.634 121.415 155.651 121.422 155.644 121.44C155.611 121.468 155.623 121.507 155.679 121.557C155.691 121.568 155.707 121.575 155.724 121.575C155.741 121.576 155.757 121.571 155.771 121.562C155.79 121.549 155.798 121.531 155.794 121.51C155.831 121.519 155.86 121.534 155.882 121.555C155.865 121.562 155.856 121.574 155.852 121.591C155.844 121.625 155.856 121.649 155.887 121.664C156.001 121.717 156.563 122.092 156.62 121.967C156.688 122.007 156.709 122.027 156.684 122.028C156.801 122.198 156.961 122.321 157.162 122.394C157.184 122.402 157.203 122.396 157.217 122.377C157.224 122.37 157.23 122.361 157.235 122.352C157.325 122.4 157.34 122.415 157.278 122.397C157.351 122.563 157.453 122.627 157.583 122.588C157.625 122.588 157.662 122.605 157.694 122.64C157.612 122.692 157.869 123.004 157.94 122.825C157.984 122.819 158.006 122.835 158.005 122.871C158.13 123.08 158.314 123.233 158.557 123.329C158.585 123.34 158.598 123.361 158.597 123.391C158.594 123.464 158.743 123.516 158.758 123.406L158.838 123.458C158.74 123.51 159.148 123.822 159.202 123.88C159.23 123.91 159.261 123.915 159.297 123.897C159.313 123.887 159.326 123.872 159.333 123.851C159.363 123.849 159.382 123.865 159.39 123.898C159.379 123.902 159.372 123.91 159.368 123.92C159.358 123.942 159.361 123.961 159.378 123.978C159.578 124.188 159.799 124.356 160.041 124.483C160.107 124.495 160.196 124.554 160.308 124.658C160.29 124.656 160.275 124.659 160.262 124.668C160.232 124.687 160.23 124.709 160.256 124.732C161.113 125.524 161.964 126.387 162.653 127.33C162.788 127.515 162.951 127.662 163.141 127.771L163.823 127.79C164.046 127.882 164.319 127.891 164.642 127.816L165.437 127.886C165.472 128.026 165.611 128.048 165.855 127.953L167.203 128.221C167.176 128.362 167.273 128.39 167.496 128.305L168.029 128.447C168.024 128.614 168.22 128.61 168.326 128.563C168.356 128.548 168.376 128.555 168.386 128.586C168.372 128.623 168.374 128.65 168.391 128.665C168.404 128.679 168.418 128.689 168.432 128.696C168.446 128.703 168.46 128.706 168.473 128.705C168.535 128.702 168.562 128.683 168.555 128.648C168.608 128.65 168.659 128.666 168.707 128.695C168.543 128.702 168.721 128.884 168.946 128.799C168.973 128.782 168.99 128.787 168.996 128.814C168.886 128.863 169.063 129.028 169.174 128.884L169.233 128.903L169.229 128.936C169.226 128.965 169.237 128.986 169.263 128.999L170.465 129.612C170.497 129.628 170.526 129.625 170.553 129.603L170.581 129.581L170.667 129.634L170.665 129.686C170.662 129.712 170.672 129.732 170.694 129.746L171.91 130.557C171.927 130.568 171.943 130.568 171.958 130.557C171.968 130.55 171.978 130.541 171.99 130.531C172.035 130.552 172.058 130.571 172.061 130.588C172.182 130.801 172.341 130.974 172.535 131.108C173.002 131.431 173.344 131.855 173.778 132.222C173.809 132.249 173.835 132.245 173.857 132.209C173.938 132.07 173.95 131.929 173.894 131.784L173.958 131.269C174.093 131.077 174.105 130.863 173.996 130.625C174.063 129.677 174.069 128.739 174.015 127.81C174.085 127.532 174.07 127.276 173.969 127.042L173.905 126.579C173.98 126.354 173.958 126.161 173.838 125.998L173.655 124.905C173.753 124.801 173.733 124.708 173.597 124.626L173.44 123.912C173.508 123.748 173.479 123.626 173.353 123.547L173.216 123.004C173.28 122.83 173.246 122.728 173.114 122.696L172.639 121.138C172.448 120.356 172.139 119.623 171.71 118.938L171.443 118.414C171.19 117.681 170.813 117.03 170.311 116.462C169.567 115.323 168.739 114.246 167.827 113.23C167.772 112.973 167.619 112.808 167.368 112.734L166.838 112.212C166.736 111.899 166.598 111.772 166.426 111.831C160.065 105.862 151.03 103.856 142.749 106.416ZM146.416 121.054C142.215 120.976 138.365 122.102 134.867 124.433C134.749 124.343 134.636 124.384 134.526 124.557C134.507 124.586 134.481 124.605 134.447 124.612C134.294 124.646 134.226 124.778 134.139 124.842C133.735 125.146 133.458 125.347 133.309 125.447C133.13 125.568 133.047 125.684 133.057 125.795C132.889 126.005 132.693 126.172 132.468 126.297C132.196 126.455 131.951 126.65 131.732 126.882C131.722 126.893 131.513 127.123 131.107 127.571C130.889 127.811 130.695 128.071 130.525 128.353C130.415 128.574 130.264 128.786 130.069 128.991C129.863 129.059 129.764 129.199 129.772 129.412C129.771 129.452 129.759 129.466 129.739 129.455C129.714 129.31 129.383 129.767 129.395 129.95L128.695 131.087C128.529 131.236 128.399 131.424 128.306 131.651C128.293 131.684 128.303 131.706 128.336 131.716C128.351 131.72 128.367 131.718 128.383 131.711L127.82 132.847C127.602 133.059 127.504 133.292 127.527 133.546C127.157 134.465 126.865 135.41 126.651 136.38C126.533 136.399 126.504 136.517 126.565 136.734L126.397 137.645C126.287 137.669 126.273 137.785 126.355 137.992L126.281 138.519C126.163 138.569 126.152 138.707 126.247 138.933L126.137 139.99C125.993 140.456 125.995 140.926 126.143 141.399L126.255 142.699C126.149 142.838 126.161 142.952 126.292 143.041L126.368 143.531C126.286 143.552 126.27 143.85 126.409 143.822L126.445 144.043C126.382 144.237 126.403 144.386 126.508 144.49L126.575 144.757C126.503 144.81 126.5 144.885 126.566 144.981C126.574 144.992 126.585 144.998 126.6 144.998C126.611 144.998 126.621 144.999 126.631 144.999L126.69 145.228C126.624 145.286 126.622 145.369 126.684 145.477C126.691 145.489 126.702 145.496 126.717 145.496C126.728 145.496 126.739 145.496 126.75 145.497L126.807 145.693C126.745 145.761 126.743 145.854 126.801 145.971C126.814 145.995 126.832 146.001 126.855 145.989C126.867 145.984 126.875 145.975 126.88 145.961L126.937 146.16C126.784 146.236 127.282 147.49 127.349 147.678C127.36 147.708 127.381 147.721 127.412 147.719L127.455 147.717L127.511 147.895C127.5 147.893 127.489 147.893 127.479 147.896C127.469 147.899 127.464 147.906 127.465 147.917C127.476 148.113 127.555 148.271 127.702 148.392L128.44 149.898C128.371 150.085 128.437 150.209 128.637 150.27L129.367 151.491C129.406 151.79 129.553 152.004 129.809 152.133L130.232 152.712C130.422 153.09 130.668 153.431 130.97 153.736C131.185 153.954 131.376 154.16 131.541 154.352C131.747 154.592 132.157 155.104 132.497 155.175C132.495 155.186 132.493 155.197 132.492 155.208C132.49 155.218 132.492 155.229 132.495 155.239C132.499 155.249 132.505 155.258 132.513 155.265C132.774 155.505 133.029 155.75 133.278 156.002C133.37 156.098 133.608 156.241 133.991 156.432C136.618 158.404 139.549 159.653 142.786 160.182C142.849 160.329 142.995 160.352 143.225 160.249C144.966 160.482 146.714 160.48 148.468 160.244C148.692 160.304 148.801 160.291 148.794 160.203L150.317 159.901C150.521 159.954 150.638 159.927 150.668 159.821L151.213 159.676C151.399 159.748 151.497 159.718 151.507 159.587L152.973 159.087C153.173 159.127 153.331 159.063 153.446 158.895C153.447 158.878 153.478 158.86 153.538 158.843C153.528 158.892 153.569 158.909 153.661 158.893C153.686 158.889 153.707 158.875 153.723 158.856C153.738 158.837 153.746 158.812 153.744 158.788C153.744 158.783 153.734 158.778 153.714 158.773C153.739 158.747 153.767 158.732 153.8 158.728C153.813 158.788 153.862 158.798 153.944 158.757C153.969 158.744 153.981 158.723 153.98 158.693C153.979 158.682 153.976 158.67 153.972 158.658L154.263 158.514C154.331 158.588 154.49 158.531 154.472 158.426L154.497 158.391C154.545 158.523 155.292 158.075 155.387 158.018C155.392 158.015 155.396 158.011 155.398 158.007C155.401 158.002 155.403 157.997 155.404 157.992C155.404 157.986 155.404 157.981 155.402 157.976C155.4 157.971 155.397 157.966 155.393 157.963C155.381 157.95 155.367 157.946 155.352 157.951L155.665 157.793C155.788 157.824 155.9 157.759 156.001 157.598C156.057 157.537 156.142 157.481 156.255 157.43C156.304 157.545 157.26 156.9 157.222 156.788C157.248 156.757 157.277 156.743 157.307 156.746C157.467 156.736 157.581 156.643 157.648 156.467L157.777 156.378C157.865 156.567 158.878 155.52 158.972 155.41C159.035 155.335 159.102 155.28 159.174 155.245C159.367 155.191 159.495 155.074 159.557 154.894C159.569 154.858 159.557 154.837 159.52 154.83C159.474 154.821 159.456 154.833 159.463 154.864L159.037 154.689C159.078 154.523 158.815 154.489 158.842 154.616C158.562 154.54 158.336 154.443 158.162 154.325C157.748 154.05 157.303 153.828 156.829 153.661C156.606 153.59 156.383 153.465 156.158 153.284C156.166 153.147 156.062 153.081 155.847 153.088L155.262 152.668C155.233 152.575 155.187 152.364 155.032 152.494C154.474 152.059 153.969 151.583 153.516 151.067C153.46 150.826 153.307 150.653 153.058 150.549C153.003 150.515 152.964 150.473 152.941 150.424C152.936 150.192 152.81 150.029 152.563 149.936C152.541 149.929 152.513 149.903 152.483 149.861C152.498 149.862 152.513 149.858 152.528 149.849C152.558 149.829 152.562 149.804 152.541 149.774L151.891 148.872C151.882 148.859 151.871 148.857 151.857 148.864C151.844 148.87 151.838 148.878 151.837 148.889C151.791 148.838 151.77 148.791 151.774 148.751C151.754 148.516 151.65 148.324 151.46 148.174L151.289 147.899C151.348 147.799 151.343 147.733 151.275 147.7C151.166 147.466 151.064 147.232 150.969 146.997C150.964 146.984 150.955 146.973 150.943 146.967C150.931 146.96 150.917 146.957 150.904 146.958C150.893 146.959 150.881 146.962 150.867 146.967C150.845 146.938 150.831 146.905 150.826 146.868C150.873 146.848 150.89 146.811 150.878 146.758C150.833 146.562 150.752 146.429 150.634 146.36L150.232 145.057C150.254 145.059 150.275 145.054 150.294 145.04C150.313 145.027 150.327 145.007 150.334 144.985C150.34 144.963 150.339 144.939 150.331 144.917C150.322 144.895 150.307 144.877 150.287 144.865C150.267 144.854 150.243 144.849 150.22 144.852C150.204 144.853 150.196 144.874 150.195 144.913L150.131 144.662C150.217 144.473 150.207 144.327 150.103 144.225C150.099 144.221 150.095 144.219 150.09 144.217C150.086 144.216 150.081 144.216 150.076 144.217C150.071 144.218 150.067 144.22 150.063 144.223C150.059 144.226 150.057 144.231 150.055 144.235C150.051 144.244 150.048 144.256 150.047 144.27L150.013 144.053C150.102 143.805 150.082 143.66 149.953 143.616C149.794 142.677 149.755 141.765 149.836 140.879C149.978 140.684 149.996 140.402 149.891 140.033L149.946 139.632C150.084 139.626 150.106 139.489 150.011 139.222L150.06 138.944C150.185 138.955 150.214 138.831 150.145 138.571C150.139 138.531 150.15 138.479 150.179 138.415C150.348 138.435 150.315 138.162 150.233 138.18L150.308 137.894C150.428 137.952 150.448 137.887 150.367 137.7C150.364 137.662 150.379 137.617 150.41 137.566C150.592 137.594 150.543 137.374 150.472 137.357L150.529 137.185C150.706 137.233 150.677 137.006 150.584 137.009L150.66 136.774L150.681 136.798C150.702 136.821 150.719 136.818 150.732 136.789C150.803 136.612 151.244 135.65 151.204 135.542C151.191 135.514 151.197 135.496 151.221 135.489C151.241 135.573 151.398 135.452 151.324 135.313C151.312 135.3 151.318 135.288 151.342 135.28C151.445 135.298 151.497 135.152 151.44 135.08C151.452 135.007 151.458 135.004 151.457 135.072C151.589 134.96 151.669 134.813 151.698 134.63C151.694 134.614 151.698 134.594 151.709 134.573C151.795 134.632 151.864 134.428 151.899 134.37C152.747 132.996 153.817 131.795 155.11 130.766C155.143 130.74 155.133 130.709 155.078 130.675C155.134 130.659 155.184 130.624 155.229 130.572C155.261 130.618 155.3 130.625 155.344 130.592C155.801 130.249 156.222 129.965 156.605 129.74C156.66 129.752 156.664 129.714 156.614 129.627C156.634 129.608 156.663 129.594 156.701 129.585C156.691 129.616 156.705 129.637 156.741 129.649C156.756 129.654 156.772 129.655 156.788 129.653C156.803 129.651 156.819 129.646 156.832 129.638C156.845 129.629 156.856 129.618 156.865 129.605C156.873 129.591 156.878 129.576 156.88 129.561C156.883 129.537 156.872 129.521 156.846 129.515L156.925 129.453L156.943 129.48C156.961 129.507 156.985 129.513 157.014 129.499L157.959 129.014C157.968 129.009 157.976 129.002 157.982 128.992C157.987 128.983 157.989 128.972 157.988 128.962C157.987 128.95 157.985 128.938 157.982 128.926C158.025 128.905 158.062 128.893 158.094 128.893C158.23 128.984 158.288 128.956 158.265 128.808C158.263 128.793 158.288 128.779 158.341 128.767C158.389 128.888 158.734 128.697 158.832 128.674C158.867 128.665 158.878 128.644 158.867 128.61C158.863 128.596 158.852 128.584 158.836 128.574C158.853 128.553 158.88 128.548 158.916 128.558C159.001 128.606 159.201 128.607 159.186 128.465C159.195 128.438 159.221 128.43 159.265 128.441C159.391 128.497 159.479 128.483 159.527 128.399C159.528 128.396 159.529 128.392 159.528 128.389C159.528 128.385 159.527 128.382 159.524 128.38C159.518 128.374 159.514 128.365 159.511 128.353C159.557 128.327 159.602 128.31 159.648 128.305C159.805 128.39 159.87 128.372 159.842 128.25L160.083 128.192C160.251 128.274 160.338 128.255 160.345 128.135L160.562 128.07C160.614 128.118 160.92 128.137 160.919 127.994C160.919 127.963 160.905 127.954 160.878 127.969L160.829 127.996C160.875 127.73 157.97 125.294 157.689 125.082C154.576 122.721 151.051 121.39 147.113 121.089C146.958 120.927 146.725 120.915 146.416 121.054ZM157.764 131.221C157.748 131.084 157.589 131.187 157.616 131.313L157.207 131.574C157.186 131.538 157.144 131.528 157.082 131.543C157.039 131.553 157.02 131.58 157.022 131.623C157.023 131.645 157.045 131.66 157.087 131.667L156.392 132.166C156.162 132.172 156 132.312 155.907 132.585L155.463 133.014C155.288 132.943 155.225 133.003 155.276 133.197L154.695 133.795C154.399 133.981 154.197 134.238 154.088 134.565C154.098 134.629 154.043 134.71 153.92 134.808C153.79 134.796 153.709 135.012 153.658 135.09C153.175 135.818 152.808 136.596 152.556 137.426L152.406 137.905C152.292 137.913 152.273 137.978 152.349 138.1L152.166 138.728C152.004 138.985 151.949 139.249 151.999 139.519C152.006 139.696 151.975 139.868 151.907 140.035C151.814 140.261 151.801 140.517 151.871 140.803C151.821 141.429 151.829 142.062 151.896 142.702C151.794 142.905 151.801 143.061 151.918 143.171L152.015 143.728C151.94 143.788 151.927 143.872 151.976 143.98C151.987 144.004 152.005 144.011 152.03 144.001C152.042 143.996 152.049 143.986 152.051 143.972L152.1 144.151C152.061 144.143 152.038 144.159 152.045 144.201C152.179 144.916 152.409 145.598 152.736 146.248L153.008 146.823C153.013 147.121 153.125 147.336 153.344 147.47L153.974 148.468C153.871 148.567 153.935 148.657 154.167 148.738L154.329 148.944C154.315 148.942 154.302 148.944 154.291 148.95C154.266 148.965 154.262 148.985 154.28 149.009C154.461 149.245 155.651 150.721 155.831 150.543L155.997 150.698C155.98 150.711 155.97 150.729 155.967 150.754C155.961 150.793 155.975 150.823 156.011 150.843C156.121 150.901 156.443 151.245 156.537 151.138C157.066 151.553 157.627 151.911 158.219 152.214C158.151 152.313 158.222 152.353 158.433 152.336L159.195 152.689C159.142 152.845 159.356 152.831 159.431 152.779C160.122 153.049 160.83 153.257 161.553 153.404C161.617 153.541 161.721 153.56 161.865 153.463C163.821 153.797 165.746 153.646 167.639 153.01C167.792 153.071 167.885 153.044 167.919 152.929C167.91 152.91 167.938 152.89 168.001 152.872C167.995 152.91 168.033 152.925 168.113 152.916C168.128 152.915 168.142 152.91 168.154 152.901C168.166 152.892 168.175 152.88 168.18 152.866C168.183 152.858 168.172 152.842 168.146 152.817L168.318 152.76C168.488 152.83 168.624 152.692 168.495 152.687C168.589 152.621 168.605 152.623 168.543 152.695C168.803 152.684 168.951 152.613 168.987 152.48L169.605 152.164L169.625 152.197C169.628 152.203 169.633 152.208 169.639 152.211C169.645 152.215 169.652 152.218 169.659 152.219C169.666 152.22 169.673 152.219 169.679 152.217C169.686 152.215 169.692 152.212 169.697 152.207L169.939 151.99C170.002 151.911 170.085 151.857 170.189 151.828C170.302 151.837 170.398 151.8 170.477 151.719C170.503 151.692 170.533 151.671 170.569 151.656C170.682 151.61 170.763 151.525 170.813 151.4C170.823 151.366 170.843 151.351 170.871 151.356L170.906 151.38C170.928 151.395 170.951 151.394 170.972 151.376L171.293 151.12C171.314 151.104 171.316 151.085 171.302 151.064C171.296 151.055 171.288 151.05 171.277 151.047C171.305 151.003 171.327 150.991 171.341 151.01C171.508 151.098 172.037 150.435 172.105 150.348L172.536 149.93C172.78 149.736 173.002 149.522 173.202 149.29C173.246 149.238 173.272 149.128 173.285 149.065C173.303 149.01 173.333 148.959 173.375 148.91C173.488 148.928 173.558 148.876 173.586 148.756C173.595 148.719 173.613 148.687 173.64 148.66C173.759 148.542 173.848 148.404 173.909 148.247C173.926 148.203 173.957 148.174 174.001 148.159C174.058 148.14 174.085 148.099 174.084 148.034C174.083 147.996 174.097 147.965 174.125 147.94C174.213 147.86 174.271 147.761 174.3 147.644C174.31 147.606 174.333 147.582 174.372 147.572C174.418 147.559 174.435 147.53 174.424 147.485C174.414 147.446 174.427 147.418 174.462 147.4C174.538 147.359 174.57 147.298 174.558 147.217C174.554 147.191 174.565 147.171 174.59 147.159C174.668 147.119 174.689 147.064 174.65 146.995C174.645 146.985 174.642 146.975 174.642 146.964C174.642 146.953 174.644 146.943 174.649 146.933C174.654 146.923 174.661 146.915 174.67 146.909C174.679 146.903 174.689 146.899 174.7 146.898C174.783 146.887 174.809 146.849 174.777 146.784C174.757 146.743 174.768 146.713 174.808 146.694C174.933 146.633 174.908 146.522 174.848 146.424C174.848 146.393 174.856 146.375 174.874 146.372C174.885 146.4 174.908 146.413 174.944 146.407C174.958 146.405 174.97 146.4 174.981 146.393C174.992 146.385 175.001 146.375 175.008 146.364C175.015 146.352 175.019 146.339 175.02 146.326C175.021 146.313 175.019 146.299 175.015 146.287C174.997 146.237 174.973 146.217 174.944 146.227L174.988 146.11C175.009 146.136 175.033 146.141 175.059 146.124C175.09 146.102 175.108 146.072 175.113 146.034C175.124 145.947 175.107 145.904 175.063 145.903L175.112 145.755C175.153 145.767 175.186 145.766 175.211 145.752C175.246 145.732 175.258 145.703 175.249 145.665L175.212 145.522L175.342 145.137C175.516 145.19 175.496 144.908 175.412 144.907L175.714 143.606C175.806 143.688 175.823 143.571 175.764 143.253L175.823 142.833C176.005 142.881 175.903 142.089 175.878 141.8L175.889 141.439L175.924 140.311C175.925 140.298 175.921 140.285 175.914 140.273C175.907 140.262 175.896 140.253 175.884 140.247C175.871 140.241 175.857 140.238 175.843 140.24C175.829 140.241 175.815 140.246 175.804 140.254C175.798 140.258 175.804 140.287 175.824 140.34C175.341 136.691 173.659 133.84 170.776 131.786C166.912 129.033 161.851 128.901 157.764 131.221Z" fill="black"/>
<path d="M166.426 111.831L166.838 112.212L167.368 112.734L167.827 113.23C168.739 114.246 169.567 115.323 170.311 116.462L171.443 118.414L171.71 118.938L172.639 121.138L173.114 122.696L173.216 123.004L173.353 123.547L173.44 123.912L173.597 124.626L173.655 124.905L173.838 125.998L173.905 126.579L173.969 127.042L174.015 127.81C174.069 128.739 174.063 129.677 173.996 130.625L173.958 131.269L173.894 131.784L173.844 132.039C173.841 132.052 173.835 132.064 173.827 132.074C173.818 132.083 173.806 132.09 173.794 132.094C173.781 132.097 173.768 132.097 173.755 132.094C173.742 132.09 173.731 132.083 173.722 132.073C173.208 131.517 172.654 131.021 172.061 130.588C172.058 130.571 172.035 130.552 171.99 130.531L170.667 129.634L170.581 129.581L169.233 128.903L169.174 128.884C169.117 128.841 169.058 128.817 168.996 128.814C168.99 128.787 168.973 128.782 168.946 128.799C168.861 128.742 168.781 128.707 168.707 128.695C168.659 128.666 168.608 128.65 168.555 128.648C168.506 128.593 168.45 128.572 168.386 128.586C168.376 128.555 168.356 128.548 168.326 128.563L168.029 128.447L167.496 128.305C167.401 128.256 167.303 128.228 167.203 128.221L165.855 127.953C165.717 127.899 165.577 127.877 165.437 127.886L164.642 127.816C164.354 127.75 164.08 127.742 163.823 127.79L163.141 127.771C162.294 126.627 161.35 125.589 160.308 124.658C160.196 124.554 160.107 124.495 160.041 124.483C159.852 124.251 159.634 124.056 159.39 123.898C159.382 123.865 159.363 123.849 159.333 123.851L158.838 123.458L158.758 123.406L158.005 122.871C158.006 122.835 157.984 122.819 157.94 122.825C157.874 122.749 157.792 122.687 157.694 122.64C157.662 122.605 157.625 122.588 157.583 122.588C157.523 122.5 157.422 122.436 157.278 122.397C157.34 122.415 157.325 122.4 157.235 122.352L156.684 122.028C156.709 122.027 156.688 122.007 156.62 121.967L155.882 121.555C155.86 121.534 155.831 121.519 155.794 121.51C155.748 121.476 155.698 121.453 155.644 121.44C155.651 121.422 155.634 121.415 155.595 121.418C155.535 121.357 155.476 121.326 155.418 121.326C155.397 121.302 155.366 121.285 155.325 121.275L155.178 121.206C155.174 121.186 155.157 121.178 155.127 121.183C155.073 121.138 155.013 121.108 154.949 121.092C154.928 121.067 154.897 121.051 154.857 121.042L154.711 120.972C154.704 120.949 154.677 120.942 154.63 120.95C154.577 120.904 154.517 120.873 154.452 120.859C154.439 120.828 154.419 120.823 154.391 120.842C154.316 120.785 154.236 120.749 154.153 120.735L154.035 120.691C153.994 120.643 153.946 120.62 153.89 120.622C153.883 120.596 153.865 120.59 153.835 120.606C153.759 120.551 153.679 120.516 153.598 120.501L153.482 120.458C153.418 120.406 153.35 120.384 153.28 120.393C153.273 120.366 153.256 120.357 153.228 120.367C153.138 120.307 153.048 120.275 152.959 120.273C152.947 120.244 152.926 120.238 152.898 120.256C152.814 120.191 152.725 120.156 152.633 120.152C152.589 120.123 152.539 120.107 152.485 120.105C152.417 120.051 152.339 120.029 152.254 120.041C152.238 120.02 152.198 120.002 152.134 119.988C152.056 119.939 151.969 119.918 151.873 119.923C151.826 119.895 151.77 119.877 151.705 119.872L151.003 119.679L150.264 119.517C150.172 119.469 150.074 119.447 149.974 119.454C149.934 119.426 149.888 119.414 149.837 119.418L149.342 119.342L148.985 119.291L148.588 119.228C147.059 119.026 145.532 118.986 144.006 119.108L143.364 119.179L142.885 119.234L142.421 119.294L141.462 119.459L141.13 119.535L140.397 119.7C140.337 119.699 140.277 119.716 140.219 119.75L139.926 119.815C139.866 119.816 139.807 119.835 139.748 119.872L139.568 119.915L137.956 120.45L137.813 120.504L137.378 120.69L137.254 120.733L136.827 120.929C136.787 120.931 136.757 120.946 136.735 120.972L136.588 121.042C136.549 121.05 136.519 121.067 136.497 121.094C136.422 121.093 136.365 121.121 136.325 121.177C136.289 121.179 136.268 121.191 136.262 121.211C136.205 121.211 136.147 121.233 136.092 121.276C136.054 121.284 136.024 121.3 136.004 121.323L135.858 121.394L135.122 121.801L134.569 122.097C134.53 122.104 134.501 122.119 134.482 122.142L133.978 122.457C133.951 122.466 133.934 122.478 133.925 122.492C133.827 122.526 133.734 122.59 133.65 122.685C133.644 122.663 133.616 122.675 133.567 122.72L132.779 123.28C132.755 123.314 132.743 123.324 132.741 123.308L132.34 123.612L132.28 123.657L131.754 124.077L131.694 124.125C131.262 124.475 130.854 124.86 130.47 125.281L130.195 125.534C128.552 127.195 127.198 129.107 126.133 131.269C126.093 131.347 126.074 131.406 126.074 131.445C126.049 131.553 126.006 131.606 125.946 131.604L125.909 131.196C125.789 130.149 125.78 129.095 125.881 128.036L125.903 127.138L126.006 126.406L126.045 126.121L126.1 125.73C126.158 125.589 126.179 125.444 126.161 125.294L126.243 124.883C126.282 124.802 126.297 124.714 126.288 124.62C126.33 124.562 126.344 124.505 126.329 124.45C126.389 124.335 126.414 124.216 126.405 124.092L126.579 123.354C126.629 123.304 126.651 123.222 126.643 123.11L126.718 122.908L126.912 122.269L126.977 122.059L127.373 120.922L127.426 120.773L127.507 120.568L127.642 120.204L127.839 119.735L128.075 119.16C128.715 117.913 129.416 116.714 130.177 115.565C130.241 115.515 130.29 115.448 130.323 115.364L131.115 114.308C131.384 114.066 131.619 113.795 131.82 113.495L134.032 111.258C134.22 111.198 134.374 111.083 134.493 110.913L135.459 110.129C135.534 110.11 135.59 110.068 135.628 110.003L136.251 109.537L137.018 109.069L137.504 108.773C139.089 107.81 140.767 107.046 142.539 106.48L142.749 106.416C151.03 103.856 160.065 105.862 166.426 111.831Z" fill="#DDE461"/>
<path d="M142.539 106.48L142.749 106.416C142.641 106.296 142.571 106.318 142.539 106.48Z" fill="#020200" fill-opacity="0.494"/>
<path d="M137.504 108.773L137.018 109.069C137.021 108.937 137.094 108.858 137.237 108.831C137.272 108.825 137.303 108.809 137.329 108.784C137.424 108.698 137.482 108.694 137.504 108.773Z" fill="#020200" fill-opacity="0.494"/>
<path d="M136.251 109.537L135.628 110.003C135.614 109.993 135.605 109.979 135.602 109.963C135.598 109.946 135.6 109.928 135.608 109.913C135.615 109.897 135.627 109.885 135.642 109.876L136.251 109.537Z" fill="#020200" fill-opacity="0.494"/>
<path d="M135.459 110.129L134.493 110.913C134.596 110.563 134.857 110.553 135.082 110.332C135.148 110.267 135.37 110.002 135.459 110.129Z" fill="#020200" fill-opacity="0.494"/>
<path d="M134.032 111.258L131.82 113.495C131.915 113.311 132.117 113.062 132.426 112.749C133.112 112.055 133.648 111.558 134.032 111.258Z" fill="#020200" fill-opacity="0.494"/>
<path d="M166.426 111.831L166.838 112.212C166.736 111.899 166.598 111.772 166.426 111.831Z" fill="#020200" fill-opacity="0.494"/>
<path d="M167.368 112.734L167.827 113.23C167.772 112.973 167.619 112.808 167.368 112.734Z" fill="#020200" fill-opacity="0.494"/>
<path d="M131.115 114.308L130.323 115.364C130.31 115.366 130.298 115.365 130.288 115.359C130.264 115.346 130.259 115.328 130.274 115.305C130.509 114.925 130.789 114.593 131.115 114.308Z" fill="#020200" fill-opacity="0.494"/>
<path d="M130.177 115.565C129.416 116.714 128.715 117.913 128.075 119.16C128.612 117.892 129.283 116.694 130.088 115.566C130.113 115.531 130.169 115.511 130.177 115.565Z" fill="#020200" fill-opacity="0.494"/>
<path d="M171.443 118.414C171.19 117.681 170.813 117.03 170.311 116.462L171.443 118.414Z" fill="#020200" fill-opacity="0.494"/>
<path d="M172.639 121.138C172.448 120.356 172.139 119.623 171.71 118.938L172.639 121.138Z" fill="#020200" fill-opacity="0.494"/>
<path d="M143.364 119.179C143.621 119.27 143.835 119.246 144.006 119.108L143.364 119.179Z" fill="#020200" fill-opacity="0.494"/>
<path d="M142.421 119.294C142.722 119.389 142.877 119.369 142.885 119.234L142.421 119.294Z" fill="#020200" fill-opacity="0.494"/>
<path d="M148.985 119.291L148.588 119.228C148.638 119.366 148.77 119.387 148.985 119.291Z" fill="#020200" fill-opacity="0.494"/>
<path d="M149.837 119.418L149.342 119.342C149.423 119.48 149.588 119.505 149.837 119.418Z" fill="#020200" fill-opacity="0.494"/>
<path d="M141.13 119.535C141.493 119.6 141.604 119.574 141.462 119.459L141.13 119.535Z" fill="#020200" fill-opacity="0.494"/>
<path d="M150.264 119.517C150.172 119.469 150.074 119.447 149.974 119.454C149.929 119.598 150.204 119.602 150.264 119.517Z" fill="#020200" fill-opacity="0.494"/>
<path d="M140.219 119.75C140.201 119.873 140.496 119.799 140.397 119.7C140.337 119.699 140.277 119.716 140.219 119.75Z" fill="#020200" fill-opacity="0.494"/>
<path d="M151.003 119.679L151.705 119.872C151.584 119.965 151.481 119.955 151.398 119.843C151.374 119.811 151.342 119.799 151.304 119.804C151.115 119.829 151.015 119.787 151.003 119.679Z" fill="#020200" fill-opacity="0.494"/>
<path d="M127.642 120.204L127.839 119.735C127.652 119.875 127.586 120.031 127.642 120.204Z" fill="#020200" fill-opacity="0.494"/>
<path d="M139.748 119.872C139.768 119.982 140.039 119.926 139.926 119.815C139.866 119.816 139.807 119.835 139.748 119.872Z" fill="#020200" fill-opacity="0.494"/>
<path d="M139.568 119.915C139.575 119.933 139.577 119.949 139.575 119.963C139.572 119.983 139.56 119.996 139.541 120.002L138.248 120.435C138.213 120.446 138.181 120.463 138.151 120.484C138.081 120.535 138.015 120.523 137.956 120.45L139.568 119.915Z" fill="#020200" fill-opacity="0.494"/>
<path d="M151.873 119.923C151.969 119.918 152.056 119.939 152.134 119.988C152.137 120.001 152.136 120.012 152.132 120.022C152.127 120.04 152.115 120.049 152.096 120.051C151.956 120.063 151.882 120.021 151.873 119.923Z" fill="#020200" fill-opacity="0.494"/>
<path d="M152.485 120.105C152.417 120.051 152.339 120.029 152.254 120.041C152.23 120.197 152.504 120.193 152.485 120.105Z" fill="#020200" fill-opacity="0.494"/>
<path d="M152.898 120.256C152.814 120.191 152.725 120.156 152.633 120.152C152.463 120.258 152.801 120.307 152.898 120.256Z" fill="#020200" fill-opacity="0.494"/>
<path d="M153.228 120.367C153.138 120.307 153.048 120.275 152.959 120.273C152.902 120.442 153.153 120.4 153.228 120.367Z" fill="#020200" fill-opacity="0.494"/>
<path d="M153.28 120.393C153.35 120.384 153.418 120.406 153.482 120.458C153.483 120.479 153.474 120.497 153.454 120.512C153.42 120.536 153.385 120.539 153.348 120.521C153.287 120.493 153.264 120.45 153.28 120.393Z" fill="#020200" fill-opacity="0.494"/>
<path d="M137.813 120.504L137.834 120.537C137.85 120.562 137.845 120.58 137.817 120.593L137.448 120.755C137.43 120.763 137.414 120.76 137.4 120.745C137.382 120.724 137.373 120.706 137.378 120.69L137.813 120.504Z" fill="#020200" fill-opacity="0.494"/>
<path d="M153.835 120.606C153.759 120.551 153.679 120.516 153.598 120.501C153.448 120.599 153.728 120.669 153.835 120.606Z" fill="#020200" fill-opacity="0.494"/>
<path d="M127.426 120.773L127.507 120.568C127.36 120.533 127.322 120.786 127.426 120.773Z" fill="#020200" fill-opacity="0.494"/>
<path d="M153.89 120.622C153.946 120.62 153.994 120.643 154.035 120.691C154.043 120.725 154.017 120.743 153.955 120.745C153.935 120.746 153.915 120.74 153.898 120.73C153.881 120.719 153.867 120.704 153.858 120.685C153.846 120.659 153.857 120.637 153.89 120.622Z" fill="#020200" fill-opacity="0.494"/>
<path d="M137.254 120.733C137.267 120.765 137.268 120.794 137.256 120.819C137.236 120.865 137.201 120.887 137.15 120.883C137.084 120.877 137.029 120.898 136.986 120.946C136.955 120.982 136.917 120.991 136.872 120.974C136.849 120.965 136.833 120.95 136.827 120.929L137.254 120.733Z" fill="#020200" fill-opacity="0.494"/>
<path d="M154.153 120.735C154.236 120.749 154.316 120.785 154.391 120.842C154.333 120.862 154.273 120.869 154.209 120.862C154.191 120.86 154.174 120.852 154.16 120.84C154.147 120.828 154.137 120.812 154.133 120.794C154.126 120.767 154.132 120.747 154.153 120.735Z" fill="#020200" fill-opacity="0.494"/>
<path d="M154.63 120.95C154.577 120.904 154.517 120.873 154.452 120.859C154.344 120.972 154.551 121.034 154.63 120.95Z" fill="#020200" fill-opacity="0.494"/>
<path d="M127.373 120.922L126.977 122.059C126.826 122.102 127.261 121.008 127.286 120.927C127.296 120.895 127.316 120.888 127.344 120.906L127.373 120.922Z" fill="#020200" fill-opacity="0.494"/>
<path d="M136.588 121.042C136.688 121.185 136.836 121.019 136.735 120.972L136.588 121.042Z" fill="#020200" fill-opacity="0.494"/>
<path d="M147.113 121.089L146.416 121.054C146.725 120.915 146.958 120.927 147.113 121.089Z" fill="#020200" fill-opacity="0.494"/>
<path d="M154.711 120.972L154.857 121.042C154.865 121.073 154.851 121.094 154.817 121.105C154.802 121.11 154.786 121.112 154.771 121.11C154.755 121.108 154.74 121.103 154.727 121.095C154.714 121.087 154.702 121.076 154.694 121.064C154.685 121.051 154.679 121.036 154.677 121.021C154.673 120.998 154.684 120.982 154.711 120.972Z" fill="#020200" fill-opacity="0.494"/>
<path d="M146.416 121.054L147.113 121.089C151.051 121.39 154.576 122.721 157.689 125.082C157.97 125.294 160.875 127.73 160.829 127.996L160.562 128.07L160.345 128.135L160.083 128.192L159.842 128.25L159.648 128.305C159.602 128.31 159.557 128.327 159.511 128.353C159.423 128.352 159.34 128.381 159.265 128.441C159.221 128.43 159.195 128.438 159.186 128.465C159.094 128.468 159.004 128.499 158.916 128.558C158.88 128.548 158.853 128.553 158.836 128.574L158.341 128.767C158.288 128.779 158.263 128.793 158.265 128.808C158.203 128.823 158.145 128.851 158.094 128.893C158.062 128.893 158.025 128.905 157.982 128.926L156.925 129.453L156.846 129.515C156.795 129.514 156.745 129.538 156.701 129.585C156.663 129.594 156.634 129.608 156.614 129.627C156.127 129.91 155.663 130.225 155.229 130.572C155.184 130.624 155.134 130.659 155.078 130.675C153.715 131.756 152.592 133.056 151.709 134.573C151.698 134.594 151.694 134.614 151.698 134.63C151.585 134.753 151.505 134.9 151.457 135.072C151.458 135.004 151.452 135.007 151.44 135.08C151.374 135.142 151.342 135.209 151.342 135.28C151.318 135.288 151.312 135.3 151.324 135.313C151.27 135.367 151.236 135.426 151.221 135.489C151.197 135.496 151.191 135.514 151.204 135.542L150.66 136.774L150.584 137.009L150.529 137.185L150.472 137.357L150.41 137.566C150.379 137.617 150.364 137.662 150.367 137.7C150.332 137.766 150.312 137.831 150.308 137.894L150.233 138.18L150.179 138.415C150.15 138.479 150.139 138.531 150.145 138.571L150.06 138.944L150.011 139.222L149.946 139.632L149.891 140.033C149.832 140.307 149.813 140.589 149.836 140.879C149.755 141.765 149.794 142.677 149.953 143.616L150.013 144.053L150.047 144.27L150.131 144.662L150.195 144.913C150.196 144.971 150.208 145.02 150.232 145.057L150.634 146.36L150.826 146.868C150.831 146.905 150.845 146.938 150.867 146.967L151.289 147.899L151.46 148.174C151.527 148.39 151.632 148.583 151.774 148.751C151.77 148.791 151.791 148.838 151.837 148.889L152.483 149.861C152.513 149.903 152.541 149.929 152.563 149.936L152.941 150.424C152.964 150.473 153.003 150.515 153.058 150.549L153.516 151.067C153.969 151.583 154.474 152.059 155.032 152.494L155.262 152.668L155.847 153.088C155.943 153.181 156.047 153.246 156.158 153.284C156.383 153.465 156.606 153.59 156.829 153.661C157.236 153.969 157.681 154.19 158.162 154.325C158.336 154.443 158.562 154.54 158.842 154.616C158.894 154.653 158.959 154.678 159.037 154.689L159.463 154.864C159.439 154.972 159.343 155.099 159.174 155.245C159.102 155.28 159.035 155.335 158.972 155.41L157.777 156.378L157.648 156.467L157.307 156.746C157.277 156.743 157.248 156.757 157.222 156.788L156.255 157.43C156.142 157.481 156.057 157.537 156.001 157.598C155.876 157.637 155.764 157.703 155.665 157.793L155.352 157.951L154.497 158.391L154.472 158.426C154.399 158.43 154.33 158.459 154.263 158.514L153.972 158.658C153.913 158.661 153.855 158.684 153.8 158.728C153.767 158.732 153.739 158.747 153.714 158.773C153.652 158.778 153.592 158.801 153.538 158.843C153.478 158.86 153.447 158.878 153.446 158.895L152.973 159.087L151.507 159.587L151.213 159.676L150.668 159.821L150.317 159.901L148.794 160.203L148.468 160.244C146.714 160.48 144.966 160.482 143.225 160.249L142.786 160.182C139.549 159.653 136.618 158.404 133.991 156.432L132.497 155.175C131.694 154.418 130.939 153.597 130.232 152.712L129.809 152.133L129.367 151.491L128.637 150.27L128.44 149.898L127.702 148.392L127.511 147.895L127.455 147.717L126.937 146.16L126.88 145.961L126.807 145.693L126.75 145.497C126.756 145.405 126.736 145.316 126.69 145.228L126.631 144.999C126.65 144.908 126.631 144.827 126.575 144.757L126.508 144.49L126.445 144.043L126.409 143.822L126.368 143.531L126.292 143.041L126.255 142.699L126.143 141.399C126.189 140.93 126.187 140.46 126.137 139.99L126.247 138.933L126.281 138.519L126.355 137.992L126.397 137.645L126.565 136.734L126.651 136.38C126.865 135.41 127.157 134.465 127.527 133.546L127.82 132.847L128.383 131.711L128.695 131.087L129.395 129.95L129.739 129.455C129.759 129.466 129.771 129.452 129.772 129.412L130.069 128.991C130.264 128.786 130.415 128.574 130.525 128.353L132.468 126.297C132.693 126.172 132.889 126.005 133.057 125.795L134.867 124.433C138.365 122.102 142.215 120.976 146.416 121.054Z" fill="#A7DBDA"/>
<path d="M136.325 121.177C136.408 121.243 136.536 121.219 136.497 121.094C136.422 121.093 136.365 121.121 136.325 121.177Z" fill="#020200" fill-opacity="0.494"/>
<path d="M154.949 121.092C155.013 121.108 155.073 121.138 155.127 121.183L155.083 121.217C155.049 121.242 155.015 121.242 154.98 121.219C154.94 121.193 154.929 121.15 154.949 121.092Z" fill="#020200" fill-opacity="0.494"/>
<path d="M136.092 121.276C136.148 121.376 136.306 121.336 136.262 121.211C136.205 121.211 136.147 121.233 136.092 121.276Z" fill="#020200" fill-opacity="0.494"/>
<path d="M155.178 121.206L155.325 121.275C155.314 121.304 155.292 121.322 155.257 121.33C155.237 121.335 155.215 121.333 155.196 121.324C155.176 121.315 155.16 121.299 155.151 121.28C155.136 121.249 155.145 121.224 155.178 121.206Z" fill="#020200" fill-opacity="0.494"/>
<path d="M135.858 121.394C135.953 121.535 136.107 121.371 136.004 121.323L135.858 121.394Z" fill="#020200" fill-opacity="0.494"/>
<path d="M155.595 121.418C155.535 121.357 155.476 121.326 155.418 121.326C155.383 121.44 155.504 121.521 155.595 121.418Z" fill="#020200" fill-opacity="0.494"/>
<path d="M155.644 121.44C155.698 121.453 155.748 121.476 155.794 121.51C155.798 121.531 155.79 121.549 155.771 121.562C155.757 121.571 155.741 121.576 155.724 121.575C155.707 121.575 155.691 121.568 155.679 121.557C155.623 121.507 155.611 121.468 155.644 121.44Z" fill="#020200" fill-opacity="0.494"/>
<path d="M155.882 121.555L156.62 121.967C156.563 122.092 156.001 121.717 155.887 121.664C155.856 121.649 155.844 121.625 155.852 121.591C155.856 121.574 155.865 121.562 155.882 121.555Z" fill="#020200" fill-opacity="0.494"/>
<path d="M135.122 121.801L134.69 122.145C134.659 122.169 134.628 122.17 134.595 122.148C134.574 122.134 134.565 122.117 134.569 122.097L135.122 121.801Z" fill="#020200" fill-opacity="0.494"/>
<path d="M156.684 122.028L157.235 122.352C157.23 122.361 157.224 122.37 157.217 122.377C157.203 122.396 157.184 122.402 157.162 122.394C156.961 122.321 156.801 122.198 156.684 122.028Z" fill="#020200" fill-opacity="0.494"/>
<path d="M134.482 122.142C134.507 122.143 134.523 122.148 134.533 122.156C134.537 122.16 134.54 122.165 134.542 122.17C134.544 122.176 134.545 122.181 134.544 122.187C134.544 122.193 134.542 122.198 134.539 122.203C134.536 122.208 134.532 122.212 134.527 122.215L134.076 122.492C134.067 122.498 134.056 122.501 134.046 122.5C134.035 122.499 134.025 122.495 134.016 122.489L133.978 122.457L134.482 122.142Z" fill="#020200" fill-opacity="0.494"/>
<path d="M126.912 122.269L126.718 122.908C126.58 122.938 126.834 122.289 126.851 122.232C126.863 122.196 126.879 122.195 126.898 122.227C126.905 122.237 126.91 122.251 126.912 122.269Z" fill="#020200" fill-opacity="0.494"/>
<path d="M157.583 122.588C157.523 122.5 157.422 122.436 157.278 122.397C157.351 122.563 157.453 122.627 157.583 122.588Z" fill="#020200" fill-opacity="0.494"/>
<path d="M133.65 122.685C133.771 122.711 134.086 122.546 133.925 122.492C133.827 122.526 133.734 122.59 133.65 122.685Z" fill="#020200" fill-opacity="0.494"/>
<path d="M157.94 122.825C157.874 122.749 157.792 122.687 157.694 122.64C157.612 122.692 157.869 123.004 157.94 122.825Z" fill="#020200" fill-opacity="0.494"/>
<path d="M173.114 122.696L173.216 123.004C173.28 122.83 173.246 122.728 173.114 122.696Z" fill="#020200" fill-opacity="0.494"/>
<path d="M133.567 122.72C133.582 122.722 133.596 122.726 133.608 122.733C133.648 122.758 133.649 122.784 133.61 122.81L132.937 123.261C132.903 123.284 132.862 123.293 132.822 123.287L132.779 123.28L133.567 122.72Z" fill="#020200" fill-opacity="0.494"/>
<path d="M158.005 122.871L158.758 123.406C158.743 123.516 158.594 123.464 158.597 123.391C158.598 123.361 158.585 123.34 158.557 123.329C158.314 123.233 158.13 123.08 158.005 122.871Z" fill="#020200" fill-opacity="0.494"/>
<path d="M126.579 123.354C126.629 123.304 126.651 123.222 126.643 123.11C126.548 123.022 126.522 123.331 126.579 123.354Z" fill="#020200" fill-opacity="0.494"/>
<path d="M132.34 123.612C132.371 123.678 132.821 123.452 132.741 123.308L132.34 123.612Z" fill="#020200" fill-opacity="0.494"/>
<path d="M158.838 123.458L159.333 123.851C159.326 123.872 159.313 123.887 159.297 123.897C159.261 123.915 159.23 123.91 159.202 123.88C159.148 123.822 158.74 123.51 158.838 123.458Z" fill="#020200" fill-opacity="0.494"/>
<path d="M173.44 123.912C173.508 123.748 173.479 123.626 173.353 123.547L173.44 123.912Z" fill="#020200" fill-opacity="0.494"/>
<path d="M132.28 123.657C132.295 123.665 132.305 123.675 132.312 123.686C132.33 123.718 132.323 123.743 132.293 123.762C132.189 123.825 131.825 124.228 131.754 124.077L132.28 123.657Z" fill="#020200" fill-opacity="0.494"/>
<path d="M159.39 123.898C159.634 124.056 159.852 124.251 160.041 124.483C159.799 124.356 159.578 124.188 159.378 123.978C159.361 123.961 159.358 123.942 159.368 123.92C159.372 123.91 159.379 123.902 159.39 123.898Z" fill="#020200" fill-opacity="0.494"/>
<path d="M126.329 124.45C126.389 124.335 126.414 124.216 126.405 124.092C126.299 124.123 126.274 124.243 126.329 124.45Z" fill="#020200" fill-opacity="0.494"/>
<path d="M131.694 124.125C131.707 124.131 131.716 124.138 131.723 124.147C131.741 124.171 131.738 124.193 131.714 124.211C131.322 124.536 130.912 125.059 130.47 125.281C130.854 124.86 131.262 124.475 131.694 124.125Z" fill="#020200" fill-opacity="0.494"/>
<path d="M134.867 124.433L133.057 125.795C133.047 125.684 133.13 125.568 133.309 125.447C133.458 125.347 133.735 125.146 134.139 124.842C134.226 124.778 134.294 124.646 134.447 124.612C134.481 124.605 134.507 124.586 134.526 124.557C134.636 124.384 134.749 124.343 134.867 124.433Z" fill="#020200" fill-opacity="0.494"/>
<path d="M126.243 124.883C126.282 124.802 126.297 124.714 126.288 124.62C126.177 124.657 126.162 124.745 126.243 124.883Z" fill="#020200" fill-opacity="0.494"/>
<path d="M173.655 124.905C173.753 124.801 173.733 124.708 173.597 124.626L173.655 124.905Z" fill="#020200" fill-opacity="0.494"/>
<path d="M160.308 124.658C161.35 125.589 162.294 126.627 163.141 127.771C162.951 127.662 162.788 127.515 162.653 127.33C161.964 126.387 161.113 125.524 160.256 124.732C160.23 124.709 160.232 124.687 160.262 124.668C160.275 124.659 160.29 124.656 160.308 124.658Z" fill="#020200" fill-opacity="0.494"/>
<path d="M126.1 125.73C126.158 125.589 126.179 125.444 126.161 125.294C126.055 125.398 126.035 125.543 126.1 125.73Z" fill="#020200" fill-opacity="0.494"/>
<path d="M130.195 125.534C130.102 125.734 130.01 125.875 129.918 125.956C129.49 126.336 129.115 126.761 128.791 127.23C128.767 127.264 128.738 127.292 128.704 127.314C128.616 127.371 128.556 127.447 128.524 127.542C128.513 127.573 128.496 127.601 128.472 127.624C128.403 127.693 128.31 127.809 128.195 127.973C127.411 129.079 126.876 129.93 126.592 130.526C126.414 130.898 126.282 131.155 126.196 131.297C126.182 131.319 126.18 131.342 126.188 131.367C126.191 131.377 126.193 131.39 126.192 131.403C126.192 131.41 126.189 131.415 126.183 131.419C126.146 131.442 126.11 131.45 126.074 131.445C126.074 131.406 126.093 131.347 126.133 131.269C127.198 129.107 128.552 127.195 130.195 125.534Z" fill="#020200" fill-opacity="0.494"/>
<path d="M173.905 126.579C173.98 126.354 173.958 126.161 173.838 125.998L173.905 126.579Z" fill="#020200" fill-opacity="0.494"/>
<path d="M126.006 126.406L126.045 126.121C125.936 126.128 125.923 126.223 126.006 126.406Z" fill="#020200" fill-opacity="0.494"/>
<path d="M132.468 126.297L130.525 128.353C130.695 128.071 130.889 127.811 131.107 127.571C131.513 127.123 131.722 126.893 131.732 126.882C131.951 126.65 132.196 126.455 132.468 126.297Z" fill="#020200" fill-opacity="0.494"/>
<path d="M174.015 127.81C174.085 127.532 174.07 127.276 173.969 127.042L174.015 127.81Z" fill="#020200" fill-opacity="0.494"/>
<path d="M125.881 128.036L125.903 127.138C125.82 127.446 125.813 127.745 125.881 128.036Z" fill="#020200" fill-opacity="0.494"/>
<path d="M164.642 127.816C164.354 127.75 164.08 127.742 163.823 127.79C164.046 127.882 164.319 127.891 164.642 127.816Z" fill="#020200" fill-opacity="0.494"/>
<path d="M165.855 127.953C165.717 127.899 165.577 127.877 165.437 127.886C165.472 128.026 165.611 128.048 165.855 127.953Z" fill="#020200" fill-opacity="0.494"/>
<path d="M160.562 128.07L160.829 127.996L160.878 127.969C160.905 127.954 160.919 127.963 160.919 127.994C160.92 128.137 160.614 128.118 160.562 128.07Z" fill="#020200" fill-opacity="0.494"/>
<path d="M160.083 128.192C160.251 128.274 160.338 128.255 160.345 128.135L160.083 128.192Z" fill="#020200" fill-opacity="0.494"/>
<path d="M167.496 128.305C167.401 128.256 167.303 128.228 167.203 128.221C167.176 128.362 167.273 128.39 167.496 128.305Z" fill="#020200" fill-opacity="0.494"/>
<path d="M159.648 128.305C159.805 128.39 159.87 128.372 159.842 128.25L159.648 128.305Z" fill="#020200" fill-opacity="0.494"/>
<path d="M159.511 128.353C159.514 128.365 159.518 128.374 159.524 128.38C159.527 128.382 159.528 128.385 159.528 128.389C159.529 128.392 159.528 128.396 159.527 128.399C159.479 128.483 159.391 128.497 159.265 128.441C159.34 128.381 159.423 128.352 159.511 128.353Z" fill="#020200" fill-opacity="0.494"/>
<path d="M168.326 128.563L168.029 128.447C168.024 128.614 168.22 128.61 168.326 128.563Z" fill="#020200" fill-opacity="0.494"/>
<path d="M158.916 128.558C159.001 128.606 159.201 128.607 159.186 128.465C159.094 128.468 159.004 128.499 158.916 128.558Z" fill="#020200" fill-opacity="0.494"/>
<path d="M158.836 128.574C158.852 128.584 158.863 128.596 158.867 128.61C158.878 128.644 158.867 128.665 158.832 128.674C158.734 128.697 158.389 128.888 158.341 128.767L158.836 128.574Z" fill="#020200" fill-opacity="0.494"/>
<path d="M168.386 128.586C168.45 128.572 168.506 128.593 168.555 128.648C168.562 128.683 168.535 128.702 168.473 128.705C168.46 128.706 168.446 128.703 168.432 128.696C168.418 128.689 168.404 128.679 168.391 128.665C168.374 128.65 168.372 128.623 168.386 128.586Z" fill="#020200" fill-opacity="0.494"/>
<path d="M168.946 128.799C168.861 128.742 168.781 128.707 168.707 128.695C168.543 128.702 168.721 128.884 168.946 128.799Z" fill="#020200" fill-opacity="0.494"/>
<path d="M158.094 128.893C158.23 128.984 158.288 128.956 158.265 128.808C158.203 128.823 158.145 128.851 158.094 128.893Z" fill="#020200" fill-opacity="0.494"/>
<path d="M169.174 128.884C169.117 128.841 169.058 128.817 168.996 128.814C168.886 128.863 169.063 129.028 169.174 128.884Z" fill="#020200" fill-opacity="0.494"/>
<path d="M169.233 128.903L170.581 129.581L170.553 129.603C170.526 129.625 170.497 129.628 170.465 129.612L169.263 128.999C169.237 128.986 169.226 128.965 169.229 128.936L169.233 128.903Z" fill="#020200" fill-opacity="0.494"/>
<path d="M157.982 128.926C157.985 128.938 157.987 128.95 157.988 128.962C157.989 128.972 157.987 128.983 157.982 128.992C157.976 129.002 157.968 129.009 157.959 129.014L157.014 129.499C156.985 129.513 156.961 129.507 156.943 129.48L156.925 129.453L157.982 128.926Z" fill="#020200" fill-opacity="0.494"/>
<path d="M129.772 129.412L130.069 128.991C129.863 129.059 129.764 129.199 129.772 129.412Z" fill="#020200" fill-opacity="0.494"/>
<path d="M129.395 129.95L129.739 129.455C129.714 129.31 129.383 129.767 129.395 129.95Z" fill="#020200" fill-opacity="0.494"/>
<path d="M156.846 129.515C156.872 129.521 156.883 129.537 156.88 129.561C156.878 129.576 156.873 129.591 156.865 129.605C156.856 129.618 156.845 129.629 156.832 129.638C156.819 129.646 156.803 129.651 156.788 129.653C156.772 129.655 156.756 129.654 156.741 129.649C156.705 129.637 156.691 129.616 156.701 129.585C156.745 129.538 156.795 129.514 156.846 129.515Z" fill="#020200" fill-opacity="0.494"/>
<path d="M175.824 140.34L175.889 141.439L175.878 141.8L175.823 142.833L175.764 143.253L175.714 143.606L175.412 144.907L175.342 145.137L175.212 145.522L175.112 145.755L175.063 145.903L174.988 146.11L174.944 146.227L174.874 146.372C174.856 146.375 174.848 146.393 174.848 146.424C174.453 147.311 173.962 148.14 173.375 148.91C173.333 148.959 173.303 149.01 173.285 149.065L172.536 149.93L172.105 150.348L171.341 151.01C171.327 150.991 171.305 151.003 171.277 151.047L170.871 151.356C170.843 151.351 170.823 151.366 170.813 151.4L170.189 151.828C170.085 151.857 170.002 151.911 169.939 151.99C169.814 152.021 169.703 152.079 169.605 152.164L168.987 152.48C168.838 152.503 168.69 152.574 168.543 152.695C168.605 152.623 168.589 152.621 168.495 152.687C168.438 152.691 168.379 152.715 168.318 152.76L168.146 152.817L168.001 152.872C167.938 152.89 167.91 152.91 167.919 152.929C167.81 152.932 167.717 152.959 167.639 153.01C165.746 153.646 163.821 153.797 161.865 153.463L161.553 153.404C160.83 153.257 160.122 153.049 159.431 152.779L159.195 152.689L158.433 152.336L158.219 152.214C157.627 151.911 157.066 151.553 156.537 151.138L155.997 150.698L155.831 150.543C155.295 150.042 154.794 149.509 154.329 148.944L154.167 148.738L153.974 148.468L153.344 147.47L153.008 146.823L152.736 146.248L152.1 144.151L152.051 143.972C152.058 143.885 152.045 143.804 152.015 143.728L151.918 143.171C151.942 143.015 151.935 142.858 151.896 142.702C151.829 142.062 151.821 141.429 151.871 140.803L151.907 140.035C151.975 139.868 152.006 139.696 151.999 139.519L152.166 138.728L152.349 138.1C152.387 138.043 152.406 137.978 152.406 137.905L152.556 137.426C152.958 136.517 153.413 135.645 153.92 134.808C154.043 134.71 154.098 134.629 154.088 134.565L154.695 133.795L155.276 133.197L155.463 133.014L155.907 132.585L156.392 132.166L157.087 131.667L157.207 131.574L157.616 131.313C157.677 131.294 157.728 131.263 157.764 131.221C161.851 128.901 166.912 129.033 170.776 131.786C173.659 133.84 175.341 136.691 175.824 140.34Z" fill="#F4E13D"/>
<path d="M156.614 129.627C156.664 129.714 156.66 129.752 156.605 129.74C156.222 129.965 155.801 130.249 155.344 130.592C155.3 130.625 155.261 130.618 155.229 130.572C155.663 130.225 156.127 129.91 156.614 129.627Z" fill="#020200" fill-opacity="0.494"/>
<path d="M170.667 129.634L171.99 130.531C171.978 130.541 171.968 130.55 171.958 130.557C171.943 130.568 171.927 130.568 171.91 130.557L170.694 129.746C170.672 129.732 170.662 129.712 170.665 129.686L170.667 129.634Z" fill="#020200" fill-opacity="0.494"/>
<path d="M172.061 130.588C172.654 131.021 173.208 131.517 173.722 132.073C173.731 132.083 173.742 132.09 173.755 132.094C173.768 132.097 173.781 132.097 173.794 132.094C173.806 132.09 173.818 132.083 173.827 132.074C173.835 132.064 173.841 132.052 173.844 132.039L173.894 131.784C173.95 131.929 173.938 132.07 173.857 132.209C173.835 132.245 173.809 132.249 173.778 132.222C173.344 131.855 173.002 131.431 172.535 131.108C172.341 130.974 172.182 130.801 172.061 130.588Z" fill="#020200" fill-opacity="0.494"/>
<path d="M173.958 131.269C174.093 131.077 174.105 130.863 173.996 130.625L173.958 131.269Z" fill="#020200" fill-opacity="0.494"/>
<path d="M155.078 130.675C155.133 130.709 155.143 130.74 155.11 130.766C153.817 131.795 152.747 132.996 151.899 134.37C151.864 134.428 151.795 134.632 151.709 134.573C152.592 133.056 153.715 131.756 155.078 130.675Z" fill="#020200" fill-opacity="0.494"/>
<path d="M128.695 131.087L128.383 131.711C128.367 131.718 128.351 131.72 128.336 131.716C128.303 131.706 128.293 131.684 128.306 131.651C128.399 131.424 128.529 131.236 128.695 131.087Z" fill="#020200" fill-opacity="0.494"/>
<path d="M157.616 131.313C157.677 131.294 157.728 131.263 157.764 131.221C157.748 131.084 157.589 131.187 157.616 131.313Z" fill="#020200" fill-opacity="0.494"/>
<path d="M125.909 131.196L125.946 131.604C126.001 131.638 126.009 131.679 125.97 131.729C125.946 131.758 125.926 131.756 125.909 131.722C125.819 131.546 125.819 131.37 125.909 131.196Z" fill="#020200" fill-opacity="0.494"/>
<path d="M157.207 131.574L157.087 131.667C157.045 131.66 157.023 131.645 157.022 131.623C157.02 131.58 157.039 131.553 157.082 131.543C157.144 131.528 157.186 131.538 157.207 131.574Z" fill="#020200" fill-opacity="0.494"/>
<path d="M155.907 132.585L156.392 132.166C156.162 132.172 156 132.312 155.907 132.585Z" fill="#020200" fill-opacity="0.494"/>
<path d="M127.527 133.546L127.82 132.847C127.602 133.059 127.504 133.292 127.527 133.546Z" fill="#020200" fill-opacity="0.494"/>
<path d="M119.963 132.966C119.969 132.968 119.976 132.969 119.983 132.971L119.986 133.618C119.978 133.615 119.971 133.612 119.963 133.61V132.966Z" fill="#020200" fill-opacity="0.494"/>
<path d="M155.276 133.197L155.463 133.014C155.288 132.943 155.225 133.003 155.276 133.197Z" fill="#020200" fill-opacity="0.494"/>
<path d="M154.088 134.565L154.695 133.795C154.399 133.981 154.197 134.238 154.088 134.565Z" fill="#020200" fill-opacity="0.494"/>
<path d="M151.457 135.072C151.589 134.96 151.669 134.813 151.698 134.63C151.585 134.753 151.505 134.9 151.457 135.072Z" fill="#020200" fill-opacity="0.494"/>
<path d="M153.92 134.808C153.413 135.645 152.958 136.517 152.556 137.426C152.808 136.596 153.175 135.818 153.658 135.09C153.709 135.012 153.79 134.796 153.92 134.808Z" fill="#020200" fill-opacity="0.494"/>
<path d="M151.342 135.28C151.445 135.298 151.497 135.152 151.44 135.08C151.374 135.142 151.342 135.209 151.342 135.28Z" fill="#020200" fill-opacity="0.494"/>
<path d="M151.221 135.489C151.241 135.573 151.398 135.452 151.324 135.313C151.27 135.367 151.236 135.426 151.221 135.489Z" fill="#020200" fill-opacity="0.494"/>
<path d="M151.204 135.542C151.244 135.65 150.803 136.612 150.732 136.789C150.719 136.818 150.702 136.821 150.681 136.798L150.66 136.774L151.204 135.542Z" fill="#020200" fill-opacity="0.494"/>
<path d="M126.565 136.734L126.651 136.38C126.533 136.399 126.504 136.517 126.565 136.734Z" fill="#020200" fill-opacity="0.494"/>
<path d="M150.529 137.185C150.706 137.233 150.677 137.006 150.584 137.009L150.529 137.185Z" fill="#020200" fill-opacity="0.494"/>
<path d="M150.41 137.566C150.592 137.594 150.543 137.374 150.472 137.357L150.41 137.566Z" fill="#020200" fill-opacity="0.494"/>
<path d="M126.355 137.992L126.397 137.645C126.287 137.669 126.273 137.785 126.355 137.992Z" fill="#020200" fill-opacity="0.494"/>
<path d="M150.308 137.894C150.428 137.952 150.448 137.887 150.367 137.7C150.332 137.766 150.312 137.831 150.308 137.894Z" fill="#020200" fill-opacity="0.494"/>
<path d="M152.349 138.1C152.387 138.043 152.406 137.978 152.406 137.905C152.292 137.913 152.273 137.978 152.349 138.1Z" fill="#020200" fill-opacity="0.494"/>
<path d="M150.179 138.415C150.348 138.435 150.315 138.162 150.233 138.18L150.179 138.415Z" fill="#020200" fill-opacity="0.494"/>
<path d="M126.247 138.933L126.281 138.519C126.163 138.569 126.152 138.707 126.247 138.933Z" fill="#020200" fill-opacity="0.494"/>
<path d="M150.06 138.944C150.185 138.955 150.214 138.831 150.145 138.571L150.06 138.944Z" fill="#020200" fill-opacity="0.494"/>
<path d="M151.999 139.519L152.166 138.728C152.004 138.985 151.949 139.249 151.999 139.519Z" fill="#020200" fill-opacity="0.494"/>
<path d="M149.946 139.632C150.084 139.626 150.106 139.489 150.011 139.222L149.946 139.632Z" fill="#020200" fill-opacity="0.494"/>
<path d="M126.143 141.399C126.189 140.93 126.187 140.46 126.137 139.99C125.993 140.456 125.995 140.926 126.143 141.399Z" fill="#020200" fill-opacity="0.494"/>
<path d="M149.836 140.879C149.978 140.684 149.996 140.402 149.891 140.033C149.832 140.307 149.813 140.589 149.836 140.879Z" fill="#020200" fill-opacity="0.494"/>
<path d="M151.871 140.803L151.907 140.035C151.814 140.261 151.801 140.517 151.871 140.803Z" fill="#020200" fill-opacity="0.494"/>
<path d="M175.889 141.439L175.824 140.34C175.804 140.287 175.798 140.258 175.804 140.254C175.815 140.246 175.829 140.241 175.843 140.24C175.857 140.238 175.871 140.241 175.884 140.247C175.896 140.253 175.907 140.262 175.914 140.273C175.921 140.285 175.925 140.298 175.924 140.311L175.889 141.439Z" fill="#020200" fill-opacity="0.494"/>
<path d="M175.823 142.833C176.005 142.881 175.903 142.089 175.878 141.8L175.823 142.833Z" fill="#020200" fill-opacity="0.494"/>
<path d="M126.292 143.041L126.255 142.699C126.149 142.838 126.161 142.952 126.292 143.041Z" fill="#020200" fill-opacity="0.494"/>
<path d="M151.918 143.171C151.942 143.015 151.935 142.858 151.896 142.702C151.794 142.905 151.801 143.061 151.918 143.171Z" fill="#020200" fill-opacity="0.494"/>
<path d="M175.714 143.606C175.806 143.688 175.823 143.571 175.764 143.253L175.714 143.606Z" fill="#020200" fill-opacity="0.494"/>
<path d="M126.409 143.822L126.368 143.531C126.286 143.552 126.27 143.85 126.409 143.822Z" fill="#020200" fill-opacity="0.494"/>
<path d="M150.013 144.053C150.102 143.805 150.082 143.66 149.953 143.616L150.013 144.053Z" fill="#020200" fill-opacity="0.494"/>
<path d="M152.015 143.728C152.045 143.804 152.058 143.885 152.051 143.972C152.049 143.986 152.042 143.996 152.03 144.001C152.005 144.011 151.987 144.004 151.976 143.98C151.927 143.872 151.94 143.788 152.015 143.728Z" fill="#020200" fill-opacity="0.494"/>
<path d="M126.508 144.49L126.445 144.043C126.382 144.237 126.403 144.386 126.508 144.49Z" fill="#020200" fill-opacity="0.494"/>
<path d="M152.1 144.151L152.736 146.248C152.409 145.598 152.179 144.916 152.045 144.201C152.038 144.159 152.061 144.143 152.1 144.151Z" fill="#020200" fill-opacity="0.494"/>
<path d="M150.131 144.662L150.047 144.27C150.048 144.256 150.051 144.244 150.055 144.235C150.057 144.231 150.059 144.226 150.063 144.223C150.067 144.22 150.071 144.218 150.076 144.217C150.081 144.216 150.086 144.216 150.09 144.217C150.095 144.219 150.099 144.221 150.103 144.225C150.207 144.327 150.217 144.473 150.131 144.662Z" fill="#020200" fill-opacity="0.494"/>
<path d="M126.575 144.757C126.631 144.827 126.65 144.908 126.631 144.999C126.621 144.999 126.611 144.998 126.6 144.998C126.585 144.998 126.574 144.992 126.566 144.981C126.5 144.885 126.503 144.81 126.575 144.757Z" fill="#020200" fill-opacity="0.494"/>
<path d="M150.232 145.057C150.208 145.02 150.196 144.971 150.195 144.913C150.196 144.874 150.204 144.853 150.22 144.852C150.243 144.849 150.267 144.854 150.287 144.865C150.307 144.877 150.322 144.895 150.331 144.917C150.339 144.939 150.34 144.963 150.334 144.985C150.327 145.007 150.313 145.027 150.294 145.04C150.275 145.054 150.254 145.059 150.232 145.057Z" fill="#020200" fill-opacity="0.494"/>
<path d="M175.342 145.137C175.516 145.19 175.496 144.908 175.412 144.907L175.342 145.137Z" fill="#020200" fill-opacity="0.494"/>
<path d="M126.69 145.228C126.736 145.316 126.756 145.405 126.75 145.497C126.739 145.496 126.728 145.496 126.717 145.496C126.702 145.496 126.691 145.489 126.684 145.477C126.622 145.369 126.624 145.286 126.69 145.228Z" fill="#020200" fill-opacity="0.494"/>
<path d="M175.212 145.522L175.249 145.665C175.258 145.703 175.246 145.732 175.211 145.752C175.186 145.766 175.153 145.767 175.112 145.755L175.212 145.522Z" fill="#020200" fill-opacity="0.494"/>
<path d="M126.807 145.693L126.88 145.961C126.875 145.975 126.867 145.984 126.855 145.989C126.832 146.001 126.814 145.995 126.801 145.971C126.743 145.854 126.745 145.761 126.807 145.693Z" fill="#020200" fill-opacity="0.494"/>
<path d="M175.063 145.903C175.107 145.904 175.124 145.947 175.113 146.034C175.108 146.072 175.09 146.102 175.059 146.124C175.033 146.141 175.009 146.136 174.988 146.11L175.063 145.903Z" fill="#020200" fill-opacity="0.494"/>
<path d="M126.937 146.16L127.455 147.717L127.412 147.719C127.381 147.721 127.36 147.708 127.349 147.678C127.282 147.49 126.784 146.236 126.937 146.16Z" fill="#020200" fill-opacity="0.494"/>
<path d="M174.944 146.227C174.973 146.217 174.997 146.237 175.015 146.287C175.019 146.299 175.021 146.313 175.02 146.326C175.019 146.339 175.015 146.352 175.008 146.364C175.001 146.375 174.992 146.385 174.981 146.393C174.97 146.4 174.958 146.405 174.944 146.407C174.908 146.413 174.885 146.4 174.874 146.372L174.944 146.227Z" fill="#020200" fill-opacity="0.494"/>
<path d="M150.634 146.36C150.752 146.429 150.833 146.562 150.878 146.758C150.89 146.811 150.873 146.848 150.826 146.868L150.634 146.36Z" fill="#020200" fill-opacity="0.494"/>
<path d="M174.848 146.424C174.908 146.522 174.933 146.633 174.808 146.694C174.768 146.713 174.757 146.743 174.777 146.784C174.809 146.849 174.783 146.887 174.7 146.898C174.689 146.899 174.679 146.903 174.67 146.909C174.661 146.915 174.654 146.923 174.649 146.933C174.644 146.943 174.642 146.953 174.642 146.964C174.642 146.975 174.645 146.985 174.65 146.995C174.689 147.064 174.668 147.119 174.59 147.159C174.565 147.171 174.554 147.191 174.558 147.217C174.57 147.298 174.538 147.359 174.462 147.4C174.427 147.418 174.414 147.446 174.424 147.485C174.435 147.53 174.418 147.559 174.372 147.572C174.333 147.582 174.31 147.606 174.3 147.644C174.271 147.761 174.213 147.86 174.125 147.94C174.097 147.965 174.083 147.996 174.084 148.034C174.085 148.099 174.058 148.14 174.001 148.159C173.957 148.174 173.926 148.203 173.909 148.247C173.848 148.404 173.759 148.542 173.64 148.66C173.613 148.687 173.595 148.719 173.586 148.756C173.558 148.876 173.488 148.928 173.375 148.91C173.962 148.14 174.453 147.311 174.848 146.424Z" fill="#020200" fill-opacity="0.494"/>
<path d="M153.344 147.47L153.008 146.823C153.013 147.121 153.125 147.336 153.344 147.47Z" fill="#020200" fill-opacity="0.494"/>
<path d="M150.867 146.967C150.881 146.962 150.893 146.959 150.904 146.958C150.917 146.957 150.931 146.96 150.943 146.967C150.955 146.973 150.964 146.984 150.969 146.997C151.064 147.232 151.166 147.466 151.275 147.7C151.343 147.733 151.348 147.799 151.289 147.899L150.867 146.967Z" fill="#020200" fill-opacity="0.494"/>
<path d="M127.511 147.895L127.702 148.392C127.555 148.271 127.476 148.113 127.465 147.917C127.464 147.906 127.469 147.899 127.479 147.896C127.489 147.893 127.5 147.893 127.511 147.895Z" fill="#020200" fill-opacity="0.494"/>
<path d="M151.774 148.751C151.754 148.516 151.65 148.324 151.46 148.174C151.527 148.39 151.632 148.583 151.774 148.751Z" fill="#020200" fill-opacity="0.494"/>
<path d="M154.167 148.738L153.974 148.468C153.871 148.567 153.935 148.657 154.167 148.738Z" fill="#020200" fill-opacity="0.494"/>
<path d="M152.483 149.861L151.837 148.889C151.838 148.878 151.844 148.87 151.857 148.864C151.871 148.857 151.882 148.859 151.891 148.872L152.541 149.774C152.562 149.804 152.558 149.829 152.528 149.849C152.513 149.858 152.498 149.862 152.483 149.861Z" fill="#020200" fill-opacity="0.494"/>
<path d="M154.329 148.944C154.794 149.509 155.295 150.042 155.831 150.543C155.651 150.721 154.461 149.245 154.28 149.009C154.262 148.985 154.266 148.965 154.291 148.95C154.302 148.944 154.315 148.942 154.329 148.944Z" fill="#020200" fill-opacity="0.494"/>
<path d="M173.285 149.065C173.272 149.128 173.246 149.238 173.202 149.29C173.002 149.522 172.78 149.736 172.536 149.93L173.285 149.065Z" fill="#020200" fill-opacity="0.494"/>
<path d="M128.637 150.27L128.44 149.898C128.371 150.085 128.437 150.209 128.637 150.27Z" fill="#020200" fill-opacity="0.494"/>
<path d="M152.941 150.424C152.936 150.192 152.81 150.029 152.563 149.936L152.941 150.424Z" fill="#020200" fill-opacity="0.494"/>
<path d="M171.341 151.01C171.508 151.098 172.037 150.435 172.105 150.348L171.341 151.01Z" fill="#020200" fill-opacity="0.494"/>
<path d="M153.516 151.067C153.46 150.826 153.307 150.653 153.058 150.549L153.516 151.067Z" fill="#020200" fill-opacity="0.494"/>
<path d="M155.997 150.698L156.537 151.138C156.443 151.245 156.121 150.901 156.011 150.843C155.975 150.823 155.961 150.793 155.967 150.754C155.97 150.729 155.98 150.711 155.997 150.698Z" fill="#020200" fill-opacity="0.494"/>
<path d="M171.277 151.047C171.288 151.05 171.296 151.055 171.302 151.064C171.316 151.085 171.314 151.104 171.293 151.12L170.972 151.376C170.951 151.394 170.928 151.395 170.906 151.38L170.871 151.356L171.277 151.047Z" fill="#020200" fill-opacity="0.494"/>
<path d="M170.813 151.4C170.763 151.525 170.682 151.61 170.569 151.656C170.533 151.671 170.503 151.692 170.477 151.719C170.398 151.8 170.302 151.837 170.189 151.828L170.813 151.4Z" fill="#020200" fill-opacity="0.494"/>
<path d="M129.809 152.133L129.367 151.491C129.406 151.79 129.553 152.004 129.809 152.133Z" fill="#020200" fill-opacity="0.494"/>
<path d="M169.939 151.99L169.697 152.207C169.692 152.212 169.686 152.215 169.679 152.217C169.673 152.219 169.666 152.22 169.659 152.219C169.652 152.218 169.645 152.215 169.639 152.211C169.633 152.208 169.628 152.203 169.625 152.197L169.605 152.164C169.703 152.079 169.814 152.021 169.939 151.99Z" fill="#020200" fill-opacity="0.494"/>
<path d="M158.433 152.336L158.219 152.214C158.151 152.313 158.222 152.353 158.433 152.336Z" fill="#020200" fill-opacity="0.494"/>
<path d="M155.032 152.494L155.262 152.668C155.233 152.575 155.187 152.364 155.032 152.494Z" fill="#020200" fill-opacity="0.494"/>
<path d="M168.543 152.695C168.803 152.684 168.951 152.613 168.987 152.48C168.838 152.503 168.69 152.574 168.543 152.695Z" fill="#020200" fill-opacity="0.494"/>
<path d="M159.431 152.779L159.195 152.689C159.142 152.845 159.356 152.831 159.431 152.779Z" fill="#020200" fill-opacity="0.494"/>
<path d="M168.318 152.76C168.488 152.83 168.624 152.692 168.495 152.687C168.438 152.691 168.379 152.715 168.318 152.76Z" fill="#020200" fill-opacity="0.494"/>
<path d="M130.232 152.712C130.939 153.597 131.694 154.418 132.497 155.175C132.157 155.104 131.747 154.592 131.541 154.352C131.376 154.16 131.185 153.954 130.97 153.736C130.668 153.431 130.422 153.09 130.232 152.712Z" fill="#020200" fill-opacity="0.494"/>
<path d="M168.146 152.817C168.172 152.842 168.183 152.858 168.18 152.866C168.175 152.88 168.166 152.892 168.154 152.901C168.142 152.91 168.128 152.915 168.113 152.916C168.033 152.925 167.995 152.91 168.001 152.872L168.146 152.817Z" fill="#020200" fill-opacity="0.494"/>
<path d="M167.639 153.01C167.792 153.071 167.885 153.044 167.919 152.929C167.81 152.932 167.717 152.959 167.639 153.01Z" fill="#020200" fill-opacity="0.494"/>
<path d="M155.847 153.088C155.943 153.181 156.047 153.246 156.158 153.284C156.166 153.147 156.062 153.081 155.847 153.088Z" fill="#020200" fill-opacity="0.494"/>
<path d="M161.865 153.463L161.553 153.404C161.617 153.541 161.721 153.56 161.865 153.463Z" fill="#020200" fill-opacity="0.494"/>
<path d="M156.829 153.661C157.236 153.969 157.681 154.19 158.162 154.325C157.748 154.05 157.303 153.828 156.829 153.661Z" fill="#020200" fill-opacity="0.494"/>
<path d="M158.842 154.616C158.894 154.653 158.959 154.678 159.037 154.689C159.078 154.523 158.815 154.489 158.842 154.616Z" fill="#020200" fill-opacity="0.494"/>
<path d="M159.174 155.245C159.343 155.099 159.439 154.972 159.463 154.864C159.456 154.833 159.474 154.821 159.52 154.83C159.557 154.837 159.569 154.858 159.557 154.894C159.495 155.074 159.367 155.191 159.174 155.245Z" fill="#020200" fill-opacity="0.494"/>
<path d="M132.497 155.175L133.991 156.432C133.608 156.241 133.37 156.098 133.278 156.002C133.029 155.75 132.774 155.505 132.513 155.265C132.505 155.258 132.499 155.249 132.495 155.239C132.492 155.229 132.49 155.218 132.492 155.208C132.493 155.197 132.495 155.186 132.497 155.175Z" fill="#020200" fill-opacity="0.494"/>
<path d="M157.777 156.378C157.865 156.567 158.878 155.52 158.972 155.41L157.777 156.378Z" fill="#020200" fill-opacity="0.494"/>
<path d="M157.307 156.746C157.467 156.736 157.581 156.643 157.648 156.467L157.307 156.746Z" fill="#020200" fill-opacity="0.494"/>
<path d="M156.255 157.43C156.304 157.545 157.26 156.9 157.222 156.788L156.255 157.43Z" fill="#020200" fill-opacity="0.494"/>
<path d="M155.665 157.793C155.788 157.824 155.9 157.759 156.001 157.598C155.876 157.637 155.764 157.703 155.665 157.793Z" fill="#020200" fill-opacity="0.494"/>
<path d="M155.352 157.951C155.367 157.946 155.381 157.95 155.393 157.963C155.397 157.966 155.4 157.971 155.402 157.976C155.404 157.981 155.404 157.986 155.404 157.992C155.403 157.997 155.401 158.002 155.398 158.007C155.396 158.011 155.392 158.015 155.387 158.018C155.292 158.075 154.545 158.523 154.497 158.391L155.352 157.951Z" fill="#020200" fill-opacity="0.494"/>
<path d="M154.263 158.514C154.331 158.588 154.49 158.531 154.472 158.426C154.399 158.43 154.33 158.459 154.263 158.514Z" fill="#020200" fill-opacity="0.494"/>
<path d="M153.972 158.658C153.976 158.67 153.979 158.682 153.98 158.693C153.981 158.723 153.969 158.744 153.944 158.757C153.862 158.798 153.813 158.788 153.8 158.728C153.855 158.684 153.913 158.661 153.972 158.658Z" fill="#020200" fill-opacity="0.494"/>
<path d="M153.714 158.773C153.734 158.778 153.744 158.783 153.744 158.788C153.746 158.812 153.738 158.837 153.723 158.856C153.707 158.875 153.686 158.889 153.661 158.893C153.569 158.909 153.528 158.892 153.538 158.843C153.592 158.801 153.652 158.778 153.714 158.773Z" fill="#020200" fill-opacity="0.494"/>
<path d="M152.973 159.087C153.173 159.127 153.331 159.063 153.446 158.895L152.973 159.087Z" fill="#020200" fill-opacity="0.494"/>
<path d="M151.213 159.676C151.399 159.748 151.497 159.718 151.507 159.587L151.213 159.676Z" fill="#020200" fill-opacity="0.494"/>
<path d="M150.317 159.901C150.521 159.954 150.638 159.927 150.668 159.821L150.317 159.901Z" fill="#020200" fill-opacity="0.494"/>
<path d="M143.225 160.249L142.786 160.182C142.849 160.329 142.995 160.352 143.225 160.249Z" fill="#020200" fill-opacity="0.494"/>
<path d="M148.468 160.244C148.692 160.304 148.801 160.291 148.794 160.203L148.468 160.244Z" fill="#020200" fill-opacity="0.494"/>
<defs>
<linearGradient id="paint0_linear_13_3173" x1="218.684" y1="133.58" x2="77.7565" y2="133.58" gradientUnits="userSpaceOnUse">
<stop stop-color="#F4E13D"/>
<stop offset="0.471279" stop-color="#DDE461"/>
<stop offset="1" stop-color="#A7DBDA"/>
</linearGradient>
</defs>
</svg>
